solid OpenSCAD_Model
  facet normal 0 0 -1
    outer loop
      vertex 32.9894 -1.06962 -0.5
      vertex 51 -3.10658 -0.5
      vertex 51 -6 -0.5
    endloop
  endfacet
  facet normal 0 0 -1
    outer loop
      vertex 51 -3.10658 -0.5
      vertex 33.114 -0.619411 -0.5
      vertex 46.1028 6 -0.5
    endloop
  endfacet
  facet normal 0 0 -1
    outer loop
      vertex 46.1028 6 -0.5
      vertex 33.1712 -0.155789 -0.5
      vertex 33.175 0 -0.5
    endloop
  endfacet
  facet normal 0 0 -1
    outer loop
      vertex 46.1028 6 -0.5
      vertex 33.1597 -0.311204 -0.5
      vertex 33.1712 -0.155789 -0.5
    endloop
  endfacet
  facet normal 0 0 -1
    outer loop
      vertex 46.1028 6 -0.5
      vertex 33.1406 -0.465869 -0.5
      vertex 33.1597 -0.311204 -0.5
    endloop
  endfacet
  facet normal 0 0 -1
    outer loop
      vertex 46.1028 6 -0.5
      vertex 33.114 -0.619411 -0.5
      vertex 33.1406 -0.465869 -0.5
    endloop
  endfacet
  facet normal 0 0 -1
    outer loop
      vertex 51 -3.10658 -0.5
      vertex 33.0798 -0.771461 -0.5
      vertex 33.114 -0.619411 -0.5
    endloop
  endfacet
  facet normal 0 0 -1
    outer loop
      vertex 51 -3.10658 -0.5
      vertex 33.0383 -0.921654 -0.5
      vertex 33.0798 -0.771461 -0.5
    endloop
  endfacet
  facet normal 0 0 -1
    outer loop
      vertex 51 -3.10658 -0.5
      vertex 32.9894 -1.06962 -0.5
      vertex 33.0383 -0.921654 -0.5
    endloop
  endfacet
  facet normal 0 0 -1
    outer loop
      vertex 51 -6 -0.5
      vertex 32.9333 -1.21502 -0.5
      vertex 32.9894 -1.06962 -0.5
    endloop
  endfacet
  facet normal 0 0 -1
    outer loop
      vertex 51 -6 -0.5
      vertex 32.8702 -1.35749 -0.5
      vertex 32.9333 -1.21502 -0.5
    endloop
  endfacet
  facet normal 0 0 -1
    outer loop
      vertex 51 -6 -0.5
      vertex 32.8001 -1.49668 -0.5
      vertex 32.8702 -1.35749 -0.5
    endloop
  endfacet
  facet normal 0 0 -1
    outer loop
      vertex 51 -6 -0.5
      vertex 32.7233 -1.63228 -0.5
      vertex 32.8001 -1.49668 -0.5
    endloop
  endfacet
  facet normal 0 0 -1
    outer loop
      vertex 51 -6 -0.5
      vertex 32.6399 -1.76394 -0.5
      vertex 32.7233 -1.63228 -0.5
    endloop
  endfacet
  facet normal 0 0 -1
    outer loop
      vertex 51 -6 -0.5
      vertex 32.5502 -1.89135 -0.5
      vertex 32.6399 -1.76394 -0.5
    endloop
  endfacet
  facet normal 0 0 -1
    outer loop
      vertex 51 -6 -0.5
      vertex 32.4543 -2.0142 -0.5
      vertex 32.5502 -1.89135 -0.5
    endloop
  endfacet
  facet normal 0 0 -1
    outer loop
      vertex 51 -6 -0.5
      vertex 32.3525 -2.1322 -0.5
      vertex 32.4543 -2.0142 -0.5
    endloop
  endfacet
  facet normal 0 0 -1
    outer loop
      vertex 30 -6 -0.5
      vertex 32.3525 -2.1322 -0.5
      vertex 51 -6 -0.5
    endloop
  endfacet
  facet normal 0 0 -1
    outer loop
      vertex 32.3525 -2.1322 -0.5
      vertex 30 -6 -0.5
      vertex 32.2451 -2.24506 -0.5
    endloop
  endfacet
  facet normal 0 0 -1
    outer loop
      vertex 32.2451 -2.24506 -0.5
      vertex 30 -6 -0.5
      vertex 32.1322 -2.35252 -0.5
    endloop
  endfacet
  facet normal 0 0 -1
    outer loop
      vertex 32.1322 -2.35252 -0.5
      vertex 30 -6 -0.5
      vertex 32.0142 -2.45431 -0.5
    endloop
  endfacet
  facet normal 0 0 -1
    outer loop
      vertex 32.0142 -2.45431 -0.5
      vertex 30 -6 -0.5
      vertex 31.8913 -2.55018 -0.5
    endloop
  endfacet
  facet normal 0 0 -1
    outer loop
      vertex 31.8913 -2.55018 -0.5
      vertex 30 -6 -0.5
      vertex 31.7639 -2.63992 -0.5
    endloop
  endfacet
  facet normal 0 0 -1
    outer loop
      vertex 31.7639 -2.63992 -0.5
      vertex 30 -6 -0.5
      vertex 31.6323 -2.72329 -0.5
    endloop
  endfacet
  facet normal 0 0 -1
    outer loop
      vertex 31.6323 -2.72329 -0.5
      vertex 30 -6 -0.5
      vertex 31.4967 -2.8001 -0.5
    endloop
  endfacet
  facet normal 0 0 -1
    outer loop
      vertex 31.4967 -2.8001 -0.5
      vertex 30 -6 -0.5
      vertex 31.3575 -2.87017 -0.5
    endloop
  endfacet
  facet normal 0 0 -1
    outer loop
      vertex 31.3575 -2.87017 -0.5
      vertex 30 -6 -0.5
      vertex 31.215 -2.93332 -0.5
    endloop
  endfacet
  facet normal 0 0 -1
    outer loop
      vertex 31.215 -2.93332 -0.5
      vertex 30 -6 -0.5
      vertex 31.0696 -2.9894 -0.5
    endloop
  endfacet
  facet normal 0 0 -1
    outer loop
      vertex 31.0696 -2.9894 -0.5
      vertex 30 -6 -0.5
      vertex 30.9217 -3.03829 -0.5
    endloop
  endfacet
  facet normal 0 0 -1
    outer loop
      vertex 30.9217 -3.03829 -0.5
      vertex 30 -6 -0.5
      vertex 30.7715 -3.07985 -0.5
    endloop
  endfacet
  facet normal 0 0 -1
    outer loop
      vertex 30.7715 -3.07985 -0.5
      vertex 30 -6 -0.5
      vertex 30.6194 -3.11399 -0.5
    endloop
  endfacet
  facet normal 0 0 -1
    outer loop
      vertex 30.6194 -3.11399 -0.5
      vertex 30 -6 -0.5
      vertex 30.4659 -3.14063 -0.5
    endloop
  endfacet
  facet normal 0 0 -1
    outer loop
      vertex 30.4659 -3.14063 -0.5
      vertex 30 -6 -0.5
      vertex 30.3112 -3.15971 -0.5
    endloop
  endfacet
  facet normal 0 0 -1
    outer loop
      vertex 30.3112 -3.15971 -0.5
      vertex 30 -6 -0.5
      vertex 30.1558 -3.17118 -0.5
    endloop
  endfacet
  facet normal 0 0 -1
    outer loop
      vertex 30.1558 -3.17118 -0.5
      vertex 30 -6 -0.5
      vertex 30 -3.175 -0.5
    endloop
  endfacet
  facet normal 0 0 -1
    outer loop
      vertex 46.1028 6 -0.5
      vertex 66.8654 11.6882 -0.5
      vertex 51 -3.10658 -0.5
    endloop
  endfacet
  facet normal -0 0 -1
    outer loop
      vertex 66.8654 11.6882 -0.5
      vertex 46.1028 6 -0.5
      vertex 60.0455 19.0017 -0.5
    endloop
  endfacet
  facet normal 0 0 -1
    outer loop
      vertex 33.1712 0.155789 -0.5
      vertex 46.1028 6 -0.5
      vertex 33.175 0 -0.5
    endloop
  endfacet
  facet normal 0 0 -1
    outer loop
      vertex 33.1597 0.311204 -0.5
      vertex 46.1028 6 -0.5
      vertex 33.1712 0.155789 -0.5
    endloop
  endfacet
  facet normal 0 0 -1
    outer loop
      vertex 33.1406 0.465869 -0.5
      vertex 46.1028 6 -0.5
      vertex 33.1597 0.311204 -0.5
    endloop
  endfacet
  facet normal 0 0 -1
    outer loop
      vertex 33.114 0.619411 -0.5
      vertex 46.1028 6 -0.5
      vertex 33.1406 0.465869 -0.5
    endloop
  endfacet
  facet normal 0 0 -1
    outer loop
      vertex 33.0798 0.771461 -0.5
      vertex 46.1028 6 -0.5
      vertex 33.114 0.619411 -0.5
    endloop
  endfacet
  facet normal 0 0 -1
    outer loop
      vertex 33.0383 0.921654 -0.5
      vertex 46.1028 6 -0.5
      vertex 33.0798 0.771461 -0.5
    endloop
  endfacet
  facet normal 0 0 -1
    outer loop
      vertex 32.9894 1.06962 -0.5
      vertex 46.1028 6 -0.5
      vertex 33.0383 0.921654 -0.5
    endloop
  endfacet
  facet normal 0 0 -1
    outer loop
      vertex 32.9333 1.21502 -0.5
      vertex 46.1028 6 -0.5
      vertex 32.9894 1.06962 -0.5
    endloop
  endfacet
  facet normal 0 0 -1
    outer loop
      vertex 32.8702 1.35749 -0.5
      vertex 46.1028 6 -0.5
      vertex 32.9333 1.21502 -0.5
    endloop
  endfacet
  facet normal 0 0 -1
    outer loop
      vertex 32.8001 1.49668 -0.5
      vertex 46.1028 6 -0.5
      vertex 32.8702 1.35749 -0.5
    endloop
  endfacet
  facet normal 0 0 -1
    outer loop
      vertex 32.7233 1.63228 -0.5
      vertex 46.1028 6 -0.5
      vertex 32.8001 1.49668 -0.5
    endloop
  endfacet
  facet normal 0 0 -1
    outer loop
      vertex 32.6399 1.76394 -0.5
      vertex 46.1028 6 -0.5
      vertex 32.7233 1.63228 -0.5
    endloop
  endfacet
  facet normal 0 0 -1
    outer loop
      vertex 32.5502 1.89135 -0.5
      vertex 46.1028 6 -0.5
      vertex 32.6399 1.76394 -0.5
    endloop
  endfacet
  facet normal 0 0 -1
    outer loop
      vertex 32.4543 2.0142 -0.5
      vertex 46.1028 6 -0.5
      vertex 32.5502 1.89135 -0.5
    endloop
  endfacet
  facet normal 0 0 -1
    outer loop
      vertex 32.3525 2.1322 -0.5
      vertex 46.1028 6 -0.5
      vertex 32.4543 2.0142 -0.5
    endloop
  endfacet
  facet normal 0 0 -1
    outer loop
      vertex 32.2451 2.24506 -0.5
      vertex 46.1028 6 -0.5
      vertex 32.3525 2.1322 -0.5
    endloop
  endfacet
  facet normal 0 0 -1
    outer loop
      vertex 30 6 -0.5
      vertex 32.2451 2.24506 -0.5
      vertex 32.1322 2.35252 -0.5
    endloop
  endfacet
  facet normal 0 0 -1
    outer loop
      vertex 30 6 -0.5
      vertex 32.1322 2.35252 -0.5
      vertex 32.0142 2.45431 -0.5
    endloop
  endfacet
  facet normal 0 0 -1
    outer loop
      vertex 30 6 -0.5
      vertex 32.0142 2.45431 -0.5
      vertex 31.8913 2.55018 -0.5
    endloop
  endfacet
  facet normal 0 0 -1
    outer loop
      vertex 30 6 -0.5
      vertex 31.8913 2.55018 -0.5
      vertex 31.7639 2.63992 -0.5
    endloop
  endfacet
  facet normal 0 0 -1
    outer loop
      vertex 30 6 -0.5
      vertex 31.7639 2.63992 -0.5
      vertex 31.6323 2.72329 -0.5
    endloop
  endfacet
  facet normal 0 0 -1
    outer loop
      vertex 30 6 -0.5
      vertex 31.6323 2.72329 -0.5
      vertex 31.4967 2.8001 -0.5
    endloop
  endfacet
  facet normal 0 0 -1
    outer loop
      vertex 30 6 -0.5
      vertex 31.4967 2.8001 -0.5
      vertex 31.3575 2.87017 -0.5
    endloop
  endfacet
  facet normal 0 0 -1
    outer loop
      vertex 30 6 -0.5
      vertex 31.3575 2.87017 -0.5
      vertex 31.215 2.93332 -0.5
    endloop
  endfacet
  facet normal 0 0 -1
    outer loop
      vertex 30 6 -0.5
      vertex 31.215 2.93332 -0.5
      vertex 31.0696 2.9894 -0.5
    endloop
  endfacet
  facet normal 0 0 -1
    outer loop
      vertex 30 6 -0.5
      vertex 31.0696 2.9894 -0.5
      vertex 30.9217 3.03829 -0.5
    endloop
  endfacet
  facet normal 0 0 -1
    outer loop
      vertex 30 6 -0.5
      vertex 30.9217 3.03829 -0.5
      vertex 30.7715 3.07985 -0.5
    endloop
  endfacet
  facet normal 0 0 -1
    outer loop
      vertex 30 6 -0.5
      vertex 30.7715 3.07985 -0.5
      vertex 30.6194 3.11399 -0.5
    endloop
  endfacet
  facet normal 0 0 -1
    outer loop
      vertex 30 6 -0.5
      vertex 30.6194 3.11399 -0.5
      vertex 30.4659 3.14063 -0.5
    endloop
  endfacet
  facet normal 0 0 -1
    outer loop
      vertex 30 6 -0.5
      vertex 30.4659 3.14063 -0.5
      vertex 30.3112 3.15971 -0.5
    endloop
  endfacet
  facet normal 0 0 -1
    outer loop
      vertex 30 6 -0.5
      vertex 30.3112 3.15971 -0.5
      vertex 30.1558 3.17118 -0.5
    endloop
  endfacet
  facet normal 0 0 -1
    outer loop
      vertex 30 6 -0.5
      vertex 30.1558 3.17118 -0.5
      vertex 30 3.175 -0.5
    endloop
  endfacet
  facet normal 0 0 -1
    outer loop
      vertex 32.2451 2.24506 -0.5
      vertex 30 6 -0.5
      vertex 46.1028 6 -0.5
    endloop
  endfacet
  facet normal 0 0 1
    outer loop
      vertex 46.1028 6 0.5
      vertex 33.1712 0.155789 0.5
      vertex 33.175 0 0.5
    endloop
  endfacet
  facet normal 0 0 1
    outer loop
      vertex 46.1028 6 0.5
      vertex 33.1597 0.311204 0.5
      vertex 33.1712 0.155789 0.5
    endloop
  endfacet
  facet normal 0 0 1
    outer loop
      vertex 46.1028 6 0.5
      vertex 33.1406 0.465869 0.5
      vertex 33.1597 0.311204 0.5
    endloop
  endfacet
  facet normal 0 0 1
    outer loop
      vertex 46.1028 6 0.5
      vertex 33.114 0.619411 0.5
      vertex 33.1406 0.465869 0.5
    endloop
  endfacet
  facet normal 0 0 1
    outer loop
      vertex 46.1028 6 0.5
      vertex 33.0798 0.771461 0.5
      vertex 33.114 0.619411 0.5
    endloop
  endfacet
  facet normal 0 0 1
    outer loop
      vertex 46.1028 6 0.5
      vertex 33.0383 0.921654 0.5
      vertex 33.0798 0.771461 0.5
    endloop
  endfacet
  facet normal 0 0 1
    outer loop
      vertex 46.1028 6 0.5
      vertex 32.9894 1.06962 0.5
      vertex 33.0383 0.921654 0.5
    endloop
  endfacet
  facet normal 0 0 1
    outer loop
      vertex 46.1028 6 0.5
      vertex 32.9333 1.21502 0.5
      vertex 32.9894 1.06962 0.5
    endloop
  endfacet
  facet normal 0 0 1
    outer loop
      vertex 46.1028 6 0.5
      vertex 32.8702 1.35749 0.5
      vertex 32.9333 1.21502 0.5
    endloop
  endfacet
  facet normal 0 0 1
    outer loop
      vertex 46.1028 6 0.5
      vertex 32.8001 1.49668 0.5
      vertex 32.8702 1.35749 0.5
    endloop
  endfacet
  facet normal 0 0 1
    outer loop
      vertex 46.1028 6 0.5
      vertex 32.7233 1.63228 0.5
      vertex 32.8001 1.49668 0.5
    endloop
  endfacet
  facet normal 0 0 1
    outer loop
      vertex 46.1028 6 0.5
      vertex 32.6399 1.76394 0.5
      vertex 32.7233 1.63228 0.5
    endloop
  endfacet
  facet normal 0 0 1
    outer loop
      vertex 46.1028 6 0.5
      vertex 32.5502 1.89135 0.5
      vertex 32.6399 1.76394 0.5
    endloop
  endfacet
  facet normal 0 0 1
    outer loop
      vertex 46.1028 6 0.5
      vertex 32.4543 2.0142 0.5
      vertex 32.5502 1.89135 0.5
    endloop
  endfacet
  facet normal 0 0 1
    outer loop
      vertex 46.1028 6 0.5
      vertex 32.3525 2.1322 0.5
      vertex 32.4543 2.0142 0.5
    endloop
  endfacet
  facet normal 0 0 1
    outer loop
      vertex 46.1028 6 0.5
      vertex 32.2451 2.24506 0.5
      vertex 32.3525 2.1322 0.5
    endloop
  endfacet
  facet normal -0 0 1
    outer loop
      vertex 30 6 0.5
      vertex 32.2451 2.24506 0.5
      vertex 46.1028 6 0.5
    endloop
  endfacet
  facet normal 0 0 1
    outer loop
      vertex 32.2451 2.24506 0.5
      vertex 30 6 0.5
      vertex 32.1322 2.35252 0.5
    endloop
  endfacet
  facet normal 0 0 1
    outer loop
      vertex 32.1322 2.35252 0.5
      vertex 30 6 0.5
      vertex 32.0142 2.45431 0.5
    endloop
  endfacet
  facet normal 0 0 1
    outer loop
      vertex 32.0142 2.45431 0.5
      vertex 30 6 0.5
      vertex 31.8913 2.55018 0.5
    endloop
  endfacet
  facet normal 0 0 1
    outer loop
      vertex 31.8913 2.55018 0.5
      vertex 30 6 0.5
      vertex 31.7639 2.63992 0.5
    endloop
  endfacet
  facet normal 0 0 1
    outer loop
      vertex 31.7639 2.63992 0.5
      vertex 30 6 0.5
      vertex 31.6323 2.72329 0.5
    endloop
  endfacet
  facet normal 0 0 1
    outer loop
      vertex 31.6323 2.72329 0.5
      vertex 30 6 0.5
      vertex 31.4967 2.8001 0.5
    endloop
  endfacet
  facet normal 0 0 1
    outer loop
      vertex 31.4967 2.8001 0.5
      vertex 30 6 0.5
      vertex 31.3575 2.87017 0.5
    endloop
  endfacet
  facet normal 0 0 1
    outer loop
      vertex 31.3575 2.87017 0.5
      vertex 30 6 0.5
      vertex 31.215 2.93332 0.5
    endloop
  endfacet
  facet normal 0 0 1
    outer loop
      vertex 31.215 2.93332 0.5
      vertex 30 6 0.5
      vertex 31.0696 2.9894 0.5
    endloop
  endfacet
  facet normal 0 0 1
    outer loop
      vertex 31.0696 2.9894 0.5
      vertex 30 6 0.5
      vertex 30.9217 3.03829 0.5
    endloop
  endfacet
  facet normal 0 0 1
    outer loop
      vertex 30.9217 3.03829 0.5
      vertex 30 6 0.5
      vertex 30.7715 3.07985 0.5
    endloop
  endfacet
  facet normal 0 0 1
    outer loop
      vertex 30.7715 3.07985 0.5
      vertex 30 6 0.5
      vertex 30.6194 3.11399 0.5
    endloop
  endfacet
  facet normal 0 0 1
    outer loop
      vertex 30.6194 3.11399 0.5
      vertex 30 6 0.5
      vertex 30.4659 3.14063 0.5
    endloop
  endfacet
  facet normal 0 0 1
    outer loop
      vertex 30.4659 3.14063 0.5
      vertex 30 6 0.5
      vertex 30.3112 3.15971 0.5
    endloop
  endfacet
  facet normal 0 0 1
    outer loop
      vertex 30.3112 3.15971 0.5
      vertex 30 6 0.5
      vertex 30.1558 3.17118 0.5
    endloop
  endfacet
  facet normal 0 0 1
    outer loop
      vertex 30.1558 3.17118 0.5
      vertex 30 6 0.5
      vertex 30 3.175 0.5
    endloop
  endfacet
  facet normal 0 0 1
    outer loop
      vertex 46.1028 6 0.5
      vertex 66.1341 11.0062 0.5
      vertex 59.3141 18.3197 0.5
    endloop
  endfacet
  facet normal 0 0 1
    outer loop
      vertex 66.1341 11.0062 0.5
      vertex 46.1028 6 0.5
      vertex 51 -3.10658 0.5
    endloop
  endfacet
  facet normal -0 0 1
    outer loop
      vertex 33.114 -0.619411 0.5
      vertex 51 -3.10658 0.5
      vertex 46.1028 6 0.5
    endloop
  endfacet
  facet normal 0 0 1
    outer loop
      vertex 33.1712 -0.155789 0.5
      vertex 46.1028 6 0.5
      vertex 33.175 0 0.5
    endloop
  endfacet
  facet normal 0 0 1
    outer loop
      vertex 33.1597 -0.311204 0.5
      vertex 46.1028 6 0.5
      vertex 33.1712 -0.155789 0.5
    endloop
  endfacet
  facet normal 0 0 1
    outer loop
      vertex 33.1406 -0.465869 0.5
      vertex 46.1028 6 0.5
      vertex 33.1597 -0.311204 0.5
    endloop
  endfacet
  facet normal 0 0 1
    outer loop
      vertex 33.114 -0.619411 0.5
      vertex 46.1028 6 0.5
      vertex 33.1406 -0.465869 0.5
    endloop
  endfacet
  facet normal -0 0 1
    outer loop
      vertex 33.0798 -0.771461 0.5
      vertex 51 -3.10658 0.5
      vertex 33.114 -0.619411 0.5
    endloop
  endfacet
  facet normal -0 0 1
    outer loop
      vertex 33.0383 -0.921654 0.5
      vertex 51 -3.10658 0.5
      vertex 33.0798 -0.771461 0.5
    endloop
  endfacet
  facet normal -0 0 1
    outer loop
      vertex 32.9894 -1.06962 0.5
      vertex 51 -3.10658 0.5
      vertex 33.0383 -0.921654 0.5
    endloop
  endfacet
  facet normal 0 0 1
    outer loop
      vertex 51 -3.10658 0.5
      vertex 32.9894 -1.06962 0.5
      vertex 51 -6 0.5
    endloop
  endfacet
  facet normal -0 0 1
    outer loop
      vertex 32.9333 -1.21502 0.5
      vertex 51 -6 0.5
      vertex 32.9894 -1.06962 0.5
    endloop
  endfacet
  facet normal -0 0 1
    outer loop
      vertex 32.8702 -1.35749 0.5
      vertex 51 -6 0.5
      vertex 32.9333 -1.21502 0.5
    endloop
  endfacet
  facet normal -0 0 1
    outer loop
      vertex 32.8001 -1.49668 0.5
      vertex 51 -6 0.5
      vertex 32.8702 -1.35749 0.5
    endloop
  endfacet
  facet normal -0 0 1
    outer loop
      vertex 32.7233 -1.63228 0.5
      vertex 51 -6 0.5
      vertex 32.8001 -1.49668 0.5
    endloop
  endfacet
  facet normal -0 0 1
    outer loop
      vertex 32.6399 -1.76394 0.5
      vertex 51 -6 0.5
      vertex 32.7233 -1.63228 0.5
    endloop
  endfacet
  facet normal -0 0 1
    outer loop
      vertex 32.5502 -1.89135 0.5
      vertex 51 -6 0.5
      vertex 32.6399 -1.76394 0.5
    endloop
  endfacet
  facet normal -0 0 1
    outer loop
      vertex 32.4543 -2.0142 0.5
      vertex 51 -6 0.5
      vertex 32.5502 -1.89135 0.5
    endloop
  endfacet
  facet normal -0 0 1
    outer loop
      vertex 32.3525 -2.1322 0.5
      vertex 51 -6 0.5
      vertex 32.4543 -2.0142 0.5
    endloop
  endfacet
  facet normal 0 0 1
    outer loop
      vertex 30 -6 0.5
      vertex 32.3525 -2.1322 0.5
      vertex 32.2451 -2.24506 0.5
    endloop
  endfacet
  facet normal 0 0 1
    outer loop
      vertex 30 -6 0.5
      vertex 32.2451 -2.24506 0.5
      vertex 32.1322 -2.35252 0.5
    endloop
  endfacet
  facet normal 0 0 1
    outer loop
      vertex 30 -6 0.5
      vertex 32.1322 -2.35252 0.5
      vertex 32.0142 -2.45431 0.5
    endloop
  endfacet
  facet normal 0 0 1
    outer loop
      vertex 30 -6 0.5
      vertex 32.0142 -2.45431 0.5
      vertex 31.8913 -2.55018 0.5
    endloop
  endfacet
  facet normal 0 0 1
    outer loop
      vertex 30 -6 0.5
      vertex 31.8913 -2.55018 0.5
      vertex 31.7639 -2.63992 0.5
    endloop
  endfacet
  facet normal 0 0 1
    outer loop
      vertex 30 -6 0.5
      vertex 31.7639 -2.63992 0.5
      vertex 31.6323 -2.72329 0.5
    endloop
  endfacet
  facet normal 0 0 1
    outer loop
      vertex 30 -6 0.5
      vertex 31.6323 -2.72329 0.5
      vertex 31.4967 -2.8001 0.5
    endloop
  endfacet
  facet normal 0 0 1
    outer loop
      vertex 30 -6 0.5
      vertex 31.4967 -2.8001 0.5
      vertex 31.3575 -2.87017 0.5
    endloop
  endfacet
  facet normal 0 0 1
    outer loop
      vertex 30 -6 0.5
      vertex 31.3575 -2.87017 0.5
      vertex 31.215 -2.93332 0.5
    endloop
  endfacet
  facet normal 0 0 1
    outer loop
      vertex 30 -6 0.5
      vertex 31.215 -2.93332 0.5
      vertex 31.0696 -2.9894 0.5
    endloop
  endfacet
  facet normal 0 0 1
    outer loop
      vertex 30 -6 0.5
      vertex 31.0696 -2.9894 0.5
      vertex 30.9217 -3.03829 0.5
    endloop
  endfacet
  facet normal 0 0 1
    outer loop
      vertex 30 -6 0.5
      vertex 30.9217 -3.03829 0.5
      vertex 30.7715 -3.07985 0.5
    endloop
  endfacet
  facet normal 0 0 1
    outer loop
      vertex 30 -6 0.5
      vertex 30.7715 -3.07985 0.5
      vertex 30.6194 -3.11399 0.5
    endloop
  endfacet
  facet normal 0 0 1
    outer loop
      vertex 30 -6 0.5
      vertex 30.6194 -3.11399 0.5
      vertex 30.4659 -3.14063 0.5
    endloop
  endfacet
  facet normal 0 0 1
    outer loop
      vertex 30 -6 0.5
      vertex 30.4659 -3.14063 0.5
      vertex 30.3112 -3.15971 0.5
    endloop
  endfacet
  facet normal 0 0 1
    outer loop
      vertex 30 -6 0.5
      vertex 30.3112 -3.15971 0.5
      vertex 30.1558 -3.17118 0.5
    endloop
  endfacet
  facet normal 0 0 1
    outer loop
      vertex 30 -6 0.5
      vertex 30.1558 -3.17118 0.5
      vertex 30 -3.175 0.5
    endloop
  endfacet
  facet normal 0 0 1
    outer loop
      vertex 32.3525 -2.1322 0.5
      vertex 30 -6 0.5
      vertex 51 -6 0.5
    endloop
  endfacet
  facet normal 1 -0 0
    outer loop
      vertex 51 -6 0.5
      vertex 51 -3.10658 -0.5
      vertex 51 -3.10658 0.5
    endloop
  endfacet
  facet normal 1 0 0
    outer loop
      vertex 51 -3.10658 -0.5
      vertex 51 -6 0.5
      vertex 51 -6 -0.5
    endloop
  endfacet
  facet normal 0 1 -0
    outer loop
      vertex 46.1028 6 -0.5
      vertex 30 6 0.5
      vertex 46.1028 6 0.5
    endloop
  endfacet
  facet normal 0 1 0
    outer loop
      vertex 30 6 0.5
      vertex 46.1028 6 -0.5
      vertex 30 6 -0.5
    endloop
  endfacet
  facet normal 0 -1 0
    outer loop
      vertex 30 -6 -0.5
      vertex 51 -6 0.5
      vertex 30 -6 0.5
    endloop
  endfacet
  facet normal 0 -1 -0
    outer loop
      vertex 51 -6 0.5
      vertex 30 -6 -0.5
      vertex 51 -6 -0.5
    endloop
  endfacet
  facet normal -0.757169 0.653219 0
    outer loop
      vertex 32.3525 -2.1322 -0.5
      vertex 32.4543 -2.0142 0.5
      vertex 32.4543 -2.0142 -0.5
    endloop
  endfacet
  facet normal -0.757169 0.653219 0
    outer loop
      vertex 32.4543 -2.0142 0.5
      vertex 32.3525 -2.1322 -0.5
      vertex 32.3525 -2.1322 0.5
    endloop
  endfacet
  facet normal -0.844775 -0.535122 0
    outer loop
      vertex 32.7233 1.63228 -0.5
      vertex 32.6399 1.76394 0.5
      vertex 32.6399 1.76394 -0.5
    endloop
  endfacet
  facet normal -0.844775 -0.535122 0
    outer loop
      vertex 32.6399 1.76394 0.5
      vertex 32.7233 1.63228 -0.5
      vertex 32.7233 1.63228 0.5
    endloop
  endfacet
  facet normal -0.359856 -0.933008 0
    outer loop
      vertex 31.0696 2.9894 -0.5
      vertex 31.215 2.93332 0.5
      vertex 31.0696 2.9894 0.5
    endloop
  endfacet
  facet normal -0.359856 -0.933008 -0
    outer loop
      vertex 31.215 2.93332 0.5
      vertex 31.0696 2.9894 -0.5
      vertex 31.215 2.93332 -0.5
    endloop
  endfacet
  facet normal -0.0245112 -0.9997 0
    outer loop
      vertex 30 3.175 -0.5
      vertex 30.1558 3.17118 0.5
      vertex 30 3.175 0.5
    endloop
  endfacet
  facet normal -0.0245112 -0.9997 -0
    outer loop
      vertex 30.1558 3.17118 0.5
      vertex 30 3.175 -0.5
      vertex 30.1558 3.17118 -0.5
    endloop
  endfacet
  facet normal -0.170994 -0.985272 0
    outer loop
      vertex 30.4659 3.14063 -0.5
      vertex 30.6194 3.11399 0.5
      vertex 30.4659 3.14063 0.5
    endloop
  endfacet
  facet normal -0.170994 -0.985272 -0
    outer loop
      vertex 30.6194 3.11399 0.5
      vertex 30.4659 3.14063 -0.5
      vertex 30.6194 3.11399 -0.5
    endloop
  endfacet
  facet normal -0.757169 -0.653219 0
    outer loop
      vertex 32.4543 2.0142 -0.5
      vertex 32.3525 2.1322 0.5
      vertex 32.3525 2.1322 -0.5
    endloop
  endfacet
  facet normal -0.757169 -0.653219 0
    outer loop
      vertex 32.3525 2.1322 0.5
      vertex 32.4543 2.0142 -0.5
      vertex 32.4543 2.0142 0.5
    endloop
  endfacet
  facet normal -0.932965 0.359968 0
    outer loop
      vertex 32.9333 -1.21502 -0.5
      vertex 32.9894 -1.06962 0.5
      vertex 32.9894 -1.06962 -0.5
    endloop
  endfacet
  facet normal -0.932965 0.359968 0
    outer loop
      vertex 32.9894 -1.06962 0.5
      vertex 32.9333 -1.21502 -0.5
      vertex 32.9333 -1.21502 0.5
    endloop
  endfacet
  facet normal -0.492867 0.870105 0
    outer loop
      vertex 31.6323 -2.72329 -0.5
      vertex 31.4967 -2.8001 0.5
      vertex 31.6323 -2.72329 0.5
    endloop
  endfacet
  facet normal -0.492867 0.870105 0
    outer loop
      vertex 31.4967 -2.8001 0.5
      vertex 31.6323 -2.72329 -0.5
      vertex 31.4967 -2.8001 -0.5
    endloop
  endfacet
  facet normal -0.870132 -0.492818 0
    outer loop
      vertex 32.8001 1.49668 -0.5
      vertex 32.7233 1.63228 0.5
      vertex 32.7233 1.63228 -0.5
    endloop
  endfacet
  facet normal -0.870132 -0.492818 0
    outer loop
      vertex 32.7233 1.63228 0.5
      vertex 32.8001 1.49668 -0.5
      vertex 32.8001 1.49668 0.5
    endloop
  endfacet
  facet normal -0.817682 0.57567 0
    outer loop
      vertex 32.5502 -1.89135 -0.5
      vertex 32.6399 -1.76394 0.5
      vertex 32.6399 -1.76394 -0.5
    endloop
  endfacet
  facet normal -0.817682 0.57567 0
    outer loop
      vertex 32.6399 -1.76394 0.5
      vertex 32.5502 -1.89135 -0.5
      vertex 32.5502 -1.89135 0.5
    endloop
  endfacet
  facet normal -0.405156 0.914248 0
    outer loop
      vertex 31.3575 -2.87017 -0.5
      vertex 31.215 -2.93332 0.5
      vertex 31.3575 -2.87017 0.5
    endloop
  endfacet
  facet normal -0.405156 0.914248 0
    outer loop
      vertex 31.215 -2.93332 0.5
      vertex 31.3575 -2.87017 -0.5
      vertex 31.215 -2.93332 -0.5
    endloop
  endfacet
  facet normal -0.975625 0.219443 0
    outer loop
      vertex 33.0798 -0.771461 -0.5
      vertex 33.114 -0.619411 0.5
      vertex 33.114 -0.619411 -0.5
    endloop
  endfacet
  facet normal -0.975625 0.219443 0
    outer loop
      vertex 33.114 -0.619411 0.5
      vertex 33.0798 -0.771461 -0.5
      vertex 33.0798 -0.771461 0.5
    endloop
  endfacet
  facet normal -0.949493 -0.31379 0
    outer loop
      vertex 33.0383 0.921654 -0.5
      vertex 32.9894 1.06962 0.5
      vertex 32.9894 1.06962 -0.5
    endloop
  endfacet
  facet normal -0.949493 -0.31379 0
    outer loop
      vertex 32.9894 1.06962 0.5
      vertex 33.0383 0.921654 -0.5
      vertex 33.0383 0.921654 0.5
    endloop
  endfacet
  facet normal -0.992461 -0.122562 0
    outer loop
      vertex 33.1597 0.311204 -0.5
      vertex 33.1406 0.465869 0.5
      vertex 33.1406 0.465869 -0.5
    endloop
  endfacet
  facet normal -0.992461 -0.122562 0
    outer loop
      vertex 33.1406 0.465869 0.5
      vertex 33.1597 0.311204 -0.5
      vertex 33.1597 0.311204 0.5
    endloop
  endfacet
  facet normal -0.817682 -0.57567 0
    outer loop
      vertex 32.6399 1.76394 -0.5
      vertex 32.5502 1.89135 0.5
      vertex 32.5502 1.89135 -0.5
    endloop
  endfacet
  facet normal -0.817682 -0.57567 0
    outer loop
      vertex 32.5502 1.89135 0.5
      vertex 32.6399 1.76394 -0.5
      vertex 32.6399 1.76394 0.5
    endloop
  endfacet
  facet normal -0.313858 -0.94947 0
    outer loop
      vertex 30.9217 3.03829 -0.5
      vertex 31.0696 2.9894 0.5
      vertex 30.9217 3.03829 0.5
    endloop
  endfacet
  facet normal -0.313858 -0.94947 -0
    outer loop
      vertex 31.0696 2.9894 0.5
      vertex 30.9217 3.03829 -0.5
      vertex 31.0696 2.9894 -0.5
    endloop
  endfacet
  facet normal -0.535159 -0.844751 0
    outer loop
      vertex 31.6323 2.72329 -0.5
      vertex 31.7639 2.63992 0.5
      vertex 31.6323 2.72329 0.5
    endloop
  endfacet
  facet normal -0.535159 -0.844751 -0
    outer loop
      vertex 31.7639 2.63992 0.5
      vertex 31.6323 2.72329 -0.5
      vertex 31.7639 2.63992 -0.5
    endloop
  endfacet
  facet normal -0.932965 -0.359968 0
    outer loop
      vertex 32.9894 1.06962 -0.5
      vertex 32.9333 1.21502 0.5
      vertex 32.9333 1.21502 -0.5
    endloop
  endfacet
  facet normal -0.932965 -0.359968 0
    outer loop
      vertex 32.9333 1.21502 0.5
      vertex 32.9894 1.06962 -0.5
      vertex 32.9894 1.06962 0.5
    endloop
  endfacet
  facet normal -0.963882 -0.266331 0
    outer loop
      vertex 33.0798 0.771461 -0.5
      vertex 33.0383 0.921654 0.5
      vertex 33.0383 0.921654 -0.5
    endloop
  endfacet
  facet normal -0.963882 -0.266331 0
    outer loop
      vertex 33.0383 0.921654 0.5
      vertex 33.0798 0.771461 -0.5
      vertex 33.0798 0.771461 0.5
    endloop
  endfacet
  facet normal -0.615064 -0.788477 0
    outer loop
      vertex 31.8913 2.55018 -0.5
      vertex 32.0142 2.45431 0.5
      vertex 31.8913 2.55018 0.5
    endloop
  endfacet
  facet normal -0.615064 -0.788477 -0
    outer loop
      vertex 32.0142 2.45431 0.5
      vertex 31.8913 2.55018 -0.5
      vertex 32.0142 2.45431 -0.5
    endloop
  endfacet
  facet normal -0.266677 0.963786 0
    outer loop
      vertex 30.9217 -3.03829 -0.5
      vertex 30.7715 -3.07985 0.5
      vertex 30.9217 -3.03829 0.5
    endloop
  endfacet
  facet normal -0.266677 0.963786 0
    outer loop
      vertex 30.7715 -3.07985 0.5
      vertex 30.9217 -3.03829 -0.5
      vertex 30.7715 -3.07985 -0.5
    endloop
  endfacet
  facet normal -0.449625 -0.893218 0
    outer loop
      vertex 31.3575 2.87017 -0.5
      vertex 31.4967 2.8001 0.5
      vertex 31.3575 2.87017 0.5
    endloop
  endfacet
  facet normal -0.449625 -0.893218 -0
    outer loop
      vertex 31.4967 2.8001 0.5
      vertex 31.3575 2.87017 -0.5
      vertex 31.4967 2.8001 -0.5
    endloop
  endfacet
  facet normal -0.975625 -0.219443 0
    outer loop
      vertex 33.114 0.619411 -0.5
      vertex 33.0798 0.771461 0.5
      vertex 33.0798 0.771461 -0.5
    endloop
  endfacet
  facet normal -0.975625 -0.219443 0
    outer loop
      vertex 33.0798 0.771461 0.5
      vertex 33.114 0.619411 -0.5
      vertex 33.114 0.619411 0.5
    endloop
  endfacet
  facet normal -0.122408 0.99248 0
    outer loop
      vertex 30.4659 -3.14063 -0.5
      vertex 30.3112 -3.15971 0.5
      vertex 30.4659 -3.14063 0.5
    endloop
  endfacet
  facet normal -0.122408 0.99248 0
    outer loop
      vertex 30.3112 -3.15971 0.5
      vertex 30.4659 -3.14063 -0.5
      vertex 30.3112 -3.15971 -0.5
    endloop
  endfacet
  facet normal -0.0736093 -0.997287 0
    outer loop
      vertex 30.1558 3.17118 -0.5
      vertex 30.3112 3.15971 0.5
      vertex 30.1558 3.17118 0.5
    endloop
  endfacet
  facet normal -0.0736093 -0.997287 -0
    outer loop
      vertex 30.3112 3.15971 0.5
      vertex 30.1558 3.17118 -0.5
      vertex 30.3112 3.15971 -0.5
    endloop
  endfacet
  facet normal -0.68944 -0.724342 0
    outer loop
      vertex 32.1322 2.35252 -0.5
      vertex 32.2451 2.24506 0.5
      vertex 32.1322 2.35252 0.5
    endloop
  endfacet
  facet normal -0.68944 -0.724342 -0
    outer loop
      vertex 32.2451 2.24506 0.5
      vertex 32.1322 2.35252 -0.5
      vertex 32.2451 2.24506 -0.5
    endloop
  endfacet
  facet normal -0.997274 0.0737937 0
    outer loop
      vertex 33.1597 -0.311204 -0.5
      vertex 33.1712 -0.155789 0.5
      vertex 33.1712 -0.155789 -0.5
    endloop
  endfacet
  facet normal -0.997274 0.0737937 0
    outer loop
      vertex 33.1712 -0.155789 0.5
      vertex 33.1597 -0.311204 -0.5
      vertex 33.1597 -0.311204 0.5
    endloop
  endfacet
  facet normal -0.575872 0.81754 0
    outer loop
      vertex 31.8913 -2.55018 -0.5
      vertex 31.7639 -2.63992 0.5
      vertex 31.8913 -2.55018 0.5
    endloop
  endfacet
  facet normal -0.575872 0.81754 0
    outer loop
      vertex 31.7639 -2.63992 0.5
      vertex 31.8913 -2.55018 -0.5
      vertex 31.7639 -2.63992 -0.5
    endloop
  endfacet
  facet normal -0.999703 0.0243847 0
    outer loop
      vertex 33.1712 -0.155789 -0.5
      vertex 33.175 0 0.5
      vertex 33.175 0 -0.5
    endloop
  endfacet
  facet normal -0.999703 0.0243847 0
    outer loop
      vertex 33.175 0 0.5
      vertex 33.1712 -0.155789 -0.5
      vertex 33.1712 -0.155789 0.5
    endloop
  endfacet
  facet normal -0.405156 -0.914248 0
    outer loop
      vertex 31.215 2.93332 -0.5
      vertex 31.3575 2.87017 0.5
      vertex 31.215 2.93332 0.5
    endloop
  endfacet
  facet normal -0.405156 -0.914248 -0
    outer loop
      vertex 31.3575 2.87017 0.5
      vertex 31.215 2.93332 -0.5
      vertex 31.3575 2.87017 -0.5
    endloop
  endfacet
  facet normal -0.788263 0.615339 0
    outer loop
      vertex 32.4543 -2.0142 -0.5
      vertex 32.5502 -1.89135 0.5
      vertex 32.5502 -1.89135 -0.5
    endloop
  endfacet
  facet normal -0.788263 0.615339 0
    outer loop
      vertex 32.5502 -1.89135 0.5
      vertex 32.4543 -2.0142 -0.5
      vertex 32.4543 -2.0142 0.5
    endloop
  endfacet
  facet normal -0.0736093 0.997287 0
    outer loop
      vertex 30.3112 -3.15971 -0.5
      vertex 30.1558 -3.17118 0.5
      vertex 30.3112 -3.15971 0.5
    endloop
  endfacet
  facet normal -0.0736093 0.997287 0
    outer loop
      vertex 30.1558 -3.17118 0.5
      vertex 30.3112 -3.15971 -0.5
      vertex 30.1558 -3.17118 -0.5
    endloop
  endfacet
  facet normal -0.219008 0.975723 0
    outer loop
      vertex 30.7715 -3.07985 -0.5
      vertex 30.6194 -3.11399 0.5
      vertex 30.7715 -3.07985 0.5
    endloop
  endfacet
  facet normal -0.219008 0.975723 0
    outer loop
      vertex 30.6194 -3.11399 0.5
      vertex 30.7715 -3.07985 -0.5
      vertex 30.6194 -3.11399 -0.5
    endloop
  endfacet
  facet normal -0.449625 0.893218 0
    outer loop
      vertex 31.4967 -2.8001 -0.5
      vertex 31.3575 -2.87017 0.5
      vertex 31.4967 -2.8001 0.5
    endloop
  endfacet
  facet normal -0.449625 0.893218 0
    outer loop
      vertex 31.3575 -2.87017 0.5
      vertex 31.4967 -2.8001 -0.5
      vertex 31.3575 -2.87017 -0.5
    endloop
  endfacet
  facet normal -0.219008 -0.975723 0
    outer loop
      vertex 30.6194 3.11399 -0.5
      vertex 30.7715 3.07985 0.5
      vertex 30.6194 3.11399 0.5
    endloop
  endfacet
  facet normal -0.219008 -0.975723 -0
    outer loop
      vertex 30.7715 3.07985 0.5
      vertex 30.6194 3.11399 -0.5
      vertex 30.7715 3.07985 -0.5
    endloop
  endfacet
  facet normal -0.985323 0.1707 0
    outer loop
      vertex 33.114 -0.619411 -0.5
      vertex 33.1406 -0.465869 0.5
      vertex 33.1406 -0.465869 -0.5
    endloop
  endfacet
  facet normal -0.985323 0.1707 0
    outer loop
      vertex 33.1406 -0.465869 0.5
      vertex 33.114 -0.619411 -0.5
      vertex 33.114 -0.619411 0.5
    endloop
  endfacet
  facet normal -0.492867 -0.870105 0
    outer loop
      vertex 31.4967 2.8001 -0.5
      vertex 31.6323 2.72329 0.5
      vertex 31.4967 2.8001 0.5
    endloop
  endfacet
  facet normal -0.492867 -0.870105 -0
    outer loop
      vertex 31.6323 2.72329 0.5
      vertex 31.4967 2.8001 -0.5
      vertex 31.6323 2.72329 -0.5
    endloop
  endfacet
  facet normal -0.653182 -0.757201 0
    outer loop
      vertex 32.0142 2.45431 -0.5
      vertex 32.1322 2.35252 0.5
      vertex 32.0142 2.45431 0.5
    endloop
  endfacet
  facet normal -0.653182 -0.757201 -0
    outer loop
      vertex 32.1322 2.35252 0.5
      vertex 32.0142 2.45431 -0.5
      vertex 32.1322 2.35252 -0.5
    endloop
  endfacet
  facet normal -0.949493 0.31379 0
    outer loop
      vertex 32.9894 -1.06962 -0.5
      vertex 33.0383 -0.921654 0.5
      vertex 33.0383 -0.921654 -0.5
    endloop
  endfacet
  facet normal -0.949493 0.31379 0
    outer loop
      vertex 33.0383 -0.921654 0.5
      vertex 32.9894 -1.06962 -0.5
      vertex 32.9894 -1.06962 0.5
    endloop
  endfacet
  facet normal -0.68944 0.724342 0
    outer loop
      vertex 32.2451 -2.24506 -0.5
      vertex 32.1322 -2.35252 0.5
      vertex 32.2451 -2.24506 0.5
    endloop
  endfacet
  facet normal -0.68944 0.724342 0
    outer loop
      vertex 32.1322 -2.35252 0.5
      vertex 32.2451 -2.24506 -0.5
      vertex 32.1322 -2.35252 -0.5
    endloop
  endfacet
  facet normal -0.724413 0.689367 0
    outer loop
      vertex 32.2451 -2.24506 -0.5
      vertex 32.3525 -2.1322 0.5
      vertex 32.3525 -2.1322 -0.5
    endloop
  endfacet
  facet normal -0.724413 0.689367 0
    outer loop
      vertex 32.3525 -2.1322 0.5
      vertex 32.2451 -2.24506 -0.5
      vertex 32.2451 -2.24506 0.5
    endloop
  endfacet
  facet normal -0.122408 -0.99248 0
    outer loop
      vertex 30.3112 3.15971 -0.5
      vertex 30.4659 3.14063 0.5
      vertex 30.3112 3.15971 0.5
    endloop
  endfacet
  facet normal -0.122408 -0.99248 -0
    outer loop
      vertex 30.4659 3.14063 0.5
      vertex 30.3112 3.15971 -0.5
      vertex 30.4659 3.14063 -0.5
    endloop
  endfacet
  facet normal -0.615064 0.788477 0
    outer loop
      vertex 32.0142 -2.45431 -0.5
      vertex 31.8913 -2.55018 0.5
      vertex 32.0142 -2.45431 0.5
    endloop
  endfacet
  facet normal -0.615064 0.788477 0
    outer loop
      vertex 31.8913 -2.55018 0.5
      vertex 32.0142 -2.45431 -0.5
      vertex 31.8913 -2.55018 -0.5
    endloop
  endfacet
  facet normal -0.575872 -0.81754 0
    outer loop
      vertex 31.7639 2.63992 -0.5
      vertex 31.8913 2.55018 0.5
      vertex 31.7639 2.63992 0.5
    endloop
  endfacet
  facet normal -0.575872 -0.81754 -0
    outer loop
      vertex 31.8913 2.55018 0.5
      vertex 31.7639 2.63992 -0.5
      vertex 31.8913 2.55018 -0.5
    endloop
  endfacet
  facet normal -0.992461 0.122562 0
    outer loop
      vertex 33.1406 -0.465869 -0.5
      vertex 33.1597 -0.311204 0.5
      vertex 33.1597 -0.311204 -0.5
    endloop
  endfacet
  facet normal -0.992461 0.122562 0
    outer loop
      vertex 33.1597 -0.311204 0.5
      vertex 33.1406 -0.465869 -0.5
      vertex 33.1406 -0.465869 0.5
    endloop
  endfacet
  facet normal -0.914335 0.404959 0
    outer loop
      vertex 32.8702 -1.35749 -0.5
      vertex 32.9333 -1.21502 0.5
      vertex 32.9333 -1.21502 -0.5
    endloop
  endfacet
  facet normal -0.914335 0.404959 0
    outer loop
      vertex 32.9333 -1.21502 0.5
      vertex 32.8702 -1.35749 -0.5
      vertex 32.8702 -1.35749 0.5
    endloop
  endfacet
  facet normal -0.653182 0.757201 0
    outer loop
      vertex 32.1322 -2.35252 -0.5
      vertex 32.0142 -2.45431 0.5
      vertex 32.1322 -2.35252 0.5
    endloop
  endfacet
  facet normal -0.653182 0.757201 0
    outer loop
      vertex 32.0142 -2.45431 0.5
      vertex 32.1322 -2.35252 -0.5
      vertex 32.0142 -2.45431 -0.5
    endloop
  endfacet
  facet normal -0.997274 -0.0737937 0
    outer loop
      vertex 33.1712 0.155789 -0.5
      vertex 33.1597 0.311204 0.5
      vertex 33.1597 0.311204 -0.5
    endloop
  endfacet
  facet normal -0.997274 -0.0737937 0
    outer loop
      vertex 33.1597 0.311204 0.5
      vertex 33.1712 0.155789 -0.5
      vertex 33.1712 0.155789 0.5
    endloop
  endfacet
  facet normal -0.999703 -0.0243847 0
    outer loop
      vertex 33.175 0 -0.5
      vertex 33.1712 0.155789 0.5
      vertex 33.1712 0.155789 -0.5
    endloop
  endfacet
  facet normal -0.999703 -0.0243847 0
    outer loop
      vertex 33.1712 0.155789 0.5
      vertex 33.175 0 -0.5
      vertex 33.175 0 0.5
    endloop
  endfacet
  facet normal -0.266677 -0.963786 0
    outer loop
      vertex 30.7715 3.07985 -0.5
      vertex 30.9217 3.03829 0.5
      vertex 30.7715 3.07985 0.5
    endloop
  endfacet
  facet normal -0.266677 -0.963786 -0
    outer loop
      vertex 30.9217 3.03829 0.5
      vertex 30.7715 3.07985 -0.5
      vertex 30.9217 3.03829 -0.5
    endloop
  endfacet
  facet normal -0.313858 0.94947 0
    outer loop
      vertex 31.0696 -2.9894 -0.5
      vertex 30.9217 -3.03829 0.5
      vertex 31.0696 -2.9894 0.5
    endloop
  endfacet
  facet normal -0.313858 0.94947 0
    outer loop
      vertex 30.9217 -3.03829 0.5
      vertex 31.0696 -2.9894 -0.5
      vertex 30.9217 -3.03829 -0.5
    endloop
  endfacet
  facet normal -0.359856 0.933008 0
    outer loop
      vertex 31.215 -2.93332 -0.5
      vertex 31.0696 -2.9894 0.5
      vertex 31.215 -2.93332 0.5
    endloop
  endfacet
  facet normal -0.359856 0.933008 0
    outer loop
      vertex 31.0696 -2.9894 0.5
      vertex 31.215 -2.93332 -0.5
      vertex 31.0696 -2.9894 -0.5
    endloop
  endfacet
  facet normal -0.724413 -0.689367 0
    outer loop
      vertex 32.3525 2.1322 -0.5
      vertex 32.2451 2.24506 0.5
      vertex 32.2451 2.24506 -0.5
    endloop
  endfacet
  facet normal -0.724413 -0.689367 0
    outer loop
      vertex 32.2451 2.24506 0.5
      vertex 32.3525 2.1322 -0.5
      vertex 32.3525 2.1322 0.5
    endloop
  endfacet
  facet normal -0.985323 -0.1707 0
    outer loop
      vertex 33.1406 0.465869 -0.5
      vertex 33.114 0.619411 0.5
      vertex 33.114 0.619411 -0.5
    endloop
  endfacet
  facet normal -0.985323 -0.1707 0
    outer loop
      vertex 33.114 0.619411 0.5
      vertex 33.1406 0.465869 -0.5
      vertex 33.1406 0.465869 0.5
    endloop
  endfacet
  facet normal -0.893127 -0.449804 0
    outer loop
      vertex 32.8702 1.35749 -0.5
      vertex 32.8001 1.49668 0.5
      vertex 32.8001 1.49668 -0.5
    endloop
  endfacet
  facet normal -0.893127 -0.449804 0
    outer loop
      vertex 32.8001 1.49668 0.5
      vertex 32.8702 1.35749 -0.5
      vertex 32.8702 1.35749 0.5
    endloop
  endfacet
  facet normal -0.535159 0.844751 0
    outer loop
      vertex 31.7639 -2.63992 -0.5
      vertex 31.6323 -2.72329 0.5
      vertex 31.7639 -2.63992 0.5
    endloop
  endfacet
  facet normal -0.535159 0.844751 0
    outer loop
      vertex 31.6323 -2.72329 0.5
      vertex 31.7639 -2.63992 -0.5
      vertex 31.6323 -2.72329 -0.5
    endloop
  endfacet
  facet normal -0.0245112 0.9997 0
    outer loop
      vertex 30.1558 -3.17118 -0.5
      vertex 30 -3.175 0.5
      vertex 30.1558 -3.17118 0.5
    endloop
  endfacet
  facet normal -0.0245112 0.9997 0
    outer loop
      vertex 30 -3.175 0.5
      vertex 30.1558 -3.17118 -0.5
      vertex 30 -3.175 -0.5
    endloop
  endfacet
  facet normal -0.870132 0.492818 0
    outer loop
      vertex 32.7233 -1.63228 -0.5
      vertex 32.8001 -1.49668 0.5
      vertex 32.8001 -1.49668 -0.5
    endloop
  endfacet
  facet normal -0.870132 0.492818 0
    outer loop
      vertex 32.8001 -1.49668 0.5
      vertex 32.7233 -1.63228 -0.5
      vertex 32.7233 -1.63228 0.5
    endloop
  endfacet
  facet normal -0.788263 -0.615339 0
    outer loop
      vertex 32.5502 1.89135 -0.5
      vertex 32.4543 2.0142 0.5
      vertex 32.4543 2.0142 -0.5
    endloop
  endfacet
  facet normal -0.788263 -0.615339 0
    outer loop
      vertex 32.4543 2.0142 0.5
      vertex 32.5502 1.89135 -0.5
      vertex 32.5502 1.89135 0.5
    endloop
  endfacet
  facet normal -0.844775 0.535122 0
    outer loop
      vertex 32.6399 -1.76394 -0.5
      vertex 32.7233 -1.63228 0.5
      vertex 32.7233 -1.63228 -0.5
    endloop
  endfacet
  facet normal -0.844775 0.535122 0
    outer loop
      vertex 32.7233 -1.63228 0.5
      vertex 32.6399 -1.76394 -0.5
      vertex 32.6399 -1.76394 0.5
    endloop
  endfacet
  facet normal -0.963882 0.266331 0
    outer loop
      vertex 33.0383 -0.921654 -0.5
      vertex 33.0798 -0.771461 0.5
      vertex 33.0798 -0.771461 -0.5
    endloop
  endfacet
  facet normal -0.963882 0.266331 0
    outer loop
      vertex 33.0798 -0.771461 0.5
      vertex 33.0383 -0.921654 -0.5
      vertex 33.0383 -0.921654 0.5
    endloop
  endfacet
  facet normal -0.893127 0.449804 0
    outer loop
      vertex 32.8001 -1.49668 -0.5
      vertex 32.8702 -1.35749 0.5
      vertex 32.8702 -1.35749 -0.5
    endloop
  endfacet
  facet normal -0.893127 0.449804 0
    outer loop
      vertex 32.8702 -1.35749 0.5
      vertex 32.8001 -1.49668 -0.5
      vertex 32.8001 -1.49668 0.5
    endloop
  endfacet
  facet normal -0.170994 0.985272 0
    outer loop
      vertex 30.6194 -3.11399 -0.5
      vertex 30.4659 -3.14063 0.5
      vertex 30.6194 -3.11399 0.5
    endloop
  endfacet
  facet normal -0.170994 0.985272 0
    outer loop
      vertex 30.4659 -3.14063 0.5
      vertex 30.6194 -3.11399 -0.5
      vertex 30.4659 -3.14063 -0.5
    endloop
  endfacet
  facet normal -0.914335 -0.404959 0
    outer loop
      vertex 32.9333 1.21502 -0.5
      vertex 32.8702 1.35749 0.5
      vertex 32.8702 1.35749 -0.5
    endloop
  endfacet
  facet normal -0.914335 -0.404959 0
    outer loop
      vertex 32.8702 1.35749 0.5
      vertex 32.9333 1.21502 -0.5
      vertex 32.9333 1.21502 0.5
    endloop
  endfacet
  facet normal -0.681976 0.731374 0
    outer loop
      vertex 60.0455 19.0017 10
      vertex 59.3141 18.3197 0.5
      vertex 59.3141 18.3197 10
    endloop
  endfacet
  facet normal -0.681976 0.731374 0
    outer loop
      vertex 60.0455 19.0017 -0.5
      vertex 59.3141 18.3197 0.5
      vertex 60.0455 19.0017 10
    endloop
  endfacet
  facet normal -0.681996 0.731356 -2.73801e-05
    outer loop
      vertex 46.1028 6 -0.5
      vertex 59.3141 18.3197 0.5
      vertex 60.0455 19.0017 -0.5
    endloop
  endfacet
  facet normal -0.681997 0.731355 0
    outer loop
      vertex 59.3141 18.3197 0.5
      vertex 46.1028 6 -0.5
      vertex 46.1028 6 0.5
    endloop
  endfacet
  facet normal 0.681998 -0.731354 0
    outer loop
      vertex 51 -3.10658 0.5
      vertex 51 -3.10658 -0.5
      vertex 66.1341 11.0062 0.5
    endloop
  endfacet
  facet normal 0.682026 -0.731328 0
    outer loop
      vertex 66.1341 11.0062 0.5
      vertex 66.8654 11.6882 10
      vertex 66.1341 11.0062 10
    endloop
  endfacet
  facet normal 0.682026 -0.731328 0
    outer loop
      vertex 66.1341 11.0062 0.5
      vertex 66.8654 11.6882 -0.5
      vertex 66.8654 11.6882 10
    endloop
  endfacet
  facet normal 0.682 -0.731352 -3.59645e-05
    outer loop
      vertex 66.8654 11.6882 -0.5
      vertex 66.1341 11.0062 0.5
      vertex 51 -3.10658 -0.5
    endloop
  endfacet
  facet normal 0.731354 0.681998 -9.50891e-05
    outer loop
      vertex 61.4327 17.5141 9.9388
      vertex 60.0455 19.0017 10
      vertex 61.419 17.5288 10
    endloop
  endfacet
  facet normal 0.731361 0.681991 0.000240551
    outer loop
      vertex 61.4707 17.4734 9.79455
      vertex 60.0455 19.0017 10
      vertex 61.4327 17.5141 9.9388
    endloop
  endfacet
  facet normal 0.731307 0.682048 -0.000560246
    outer loop
      vertex 61.5134 17.4275 9.6532
      vertex 60.0455 19.0017 10
      vertex 61.4707 17.4734 9.79455
    endloop
  endfacet
  facet normal 0.731388 0.681962 0.000174848
    outer loop
      vertex 61.5608 17.3767 9.5151
      vertex 60.0455 19.0017 10
      vertex 61.5134 17.4275 9.6532
    endloop
  endfacet
  facet normal 0.731418 0.68193 0.000373333
    outer loop
      vertex 61.6128 17.321 9.38058
      vertex 60.0455 19.0017 10
      vertex 61.5608 17.3767 9.5151
    endloop
  endfacet
  facet normal 0.731327 0.682027 -0.000121182
    outer loop
      vertex 61.6692 17.2605 9.24995
      vertex 60.0455 19.0017 10
      vertex 61.6128 17.321 9.38058
    endloop
  endfacet
  facet normal 0.731342 0.682011 -5.13726e-05
    outer loop
      vertex 61.7299 17.1954 9.12355
      vertex 60.0455 19.0017 10
      vertex 61.6692 17.2605 9.24995
    endloop
  endfacet
  facet normal 0.731348 0.682004 -2.4674e-05
    outer loop
      vertex 61.7948 17.1258 9.00166
      vertex 60.0455 19.0017 10
      vertex 61.7299 17.1954 9.12355
    endloop
  endfacet
  facet normal 0.731323 0.682031 -0.000119151
    outer loop
      vertex 61.8637 17.0519 8.88459
      vertex 60.0455 19.0017 10
      vertex 61.7948 17.1258 9.00166
    endloop
  endfacet
  facet normal 0.731536 0.681803 0.000627087
    outer loop
      vertex 61.9364 16.974 8.77261
      vertex 60.0455 19.0017 10
      vertex 61.8637 17.0519 8.88459
    endloop
  endfacet
  facet normal 0.731445 0.6819 0.000326162
    outer loop
      vertex 62.0128 16.8921 8.666
      vertex 60.0455 19.0017 10
      vertex 61.9364 16.974 8.77261
    endloop
  endfacet
  facet normal 0.731214 0.682148 -0.00040542
    outer loop
      vertex 62.0926 16.8065 8.56502
      vertex 60.0455 19.0017 10
      vertex 62.0128 16.8921 8.666
    endloop
  endfacet
  facet normal 0.731347 0.682006 0
    outer loop
      vertex 60.0455 19.0017 10
      vertex 62.0926 16.8065 8.56502
      vertex 60.0455 19.0017 -0.5
    endloop
  endfacet
  facet normal 0.731613 0.68172 -0.000129581
    outer loop
      vertex 62.1757 16.7173 8.4699
      vertex 60.0455 19.0017 -0.5
      vertex 62.0926 16.8065 8.56502
    endloop
  endfacet
  facet normal 0.731242 0.682118 6.0075e-05
    outer loop
      vertex 62.2619 16.6249 8.38087
      vertex 60.0455 19.0017 -0.5
      vertex 62.1757 16.7173 8.4699
    endloop
  endfacet
  facet normal 0.731504 0.681837 -8.04247e-05
    outer loop
      vertex 62.351 16.5293 8.29815
      vertex 60.0455 19.0017 -0.5
      vertex 62.2619 16.6249 8.38087
    endloop
  endfacet
  facet normal 0.730947 0.682434 0.000232951
    outer loop
      vertex 62.4428 16.431 8.22195
      vertex 60.0455 19.0017 -0.5
      vertex 62.351 16.5293 8.29815
    endloop
  endfacet
  facet normal 0.731884 0.68143 -0.00032033
    outer loop
      vertex 62.5369 16.3299 8.15243
      vertex 60.0455 19.0017 -0.5
      vertex 62.4428 16.431 8.22195
    endloop
  endfacet
  facet normal 0.731144 0.682223 0.000137729
    outer loop
      vertex 62.6333 16.2266 8.08978
      vertex 60.0455 19.0017 -0.5
      vertex 62.5369 16.3299 8.15243
    endloop
  endfacet
  facet normal 0.731296 0.68206 3.92597e-05
    outer loop
      vertex 62.7317 16.1211 8.03414
      vertex 60.0455 19.0017 -0.5
      vertex 62.6333 16.2266 8.08978
    endloop
  endfacet
  facet normal 0.731507 0.681834 -0.000103756
    outer loop
      vertex 62.8318 16.0137 7.98564
      vertex 60.0455 19.0017 -0.5
      vertex 62.7317 16.1211 8.03414
    endloop
  endfacet
  facet normal 0.73119 0.682174 0.000120614
    outer loop
      vertex 62.9335 15.9047 7.9444
      vertex 60.0455 19.0017 -0.5
      vertex 62.8318 16.0137 7.98564
    endloop
  endfacet
  facet normal 0.731521 0.681818 -0.000123389
    outer loop
      vertex 63.0363 15.7944 7.91053
      vertex 60.0455 19.0017 -0.5
      vertex 62.9335 15.9047 7.9444
    endloop
  endfacet
  facet normal 0.731301 0.682055 4.53424e-05
    outer loop
      vertex 63.1402 15.683 7.88409
      vertex 60.0455 19.0017 -0.5
      vertex 63.0363 15.7944 7.91053
    endloop
  endfacet
  facet normal 0.731135 0.682233 0.000176721
    outer loop
      vertex 63.2449 15.5708 7.86517
      vertex 60.0455 19.0017 -0.5
      vertex 63.1402 15.683 7.88409
    endloop
  endfacet
  facet normal 0.731626 0.681706 -0.000226888
    outer loop
      vertex 63.35 15.458 7.85379
      vertex 60.0455 19.0017 -0.5
      vertex 63.2449 15.5708 7.86517
    endloop
  endfacet
  facet normal 0.730953 0.682427 0.000344974
    outer loop
      vertex 63.4555 15.345 7.85
      vertex 60.0455 19.0017 -0.5
      vertex 63.35 15.458 7.85379
    endloop
  endfacet
  facet normal 0.731568 0.681768 0.00017786
    outer loop
      vertex 66.8654 11.6882 -0.5
      vertex 63.4555 15.345 7.85
      vertex 63.5609 15.2319 7.85379
    endloop
  endfacet
  facet normal 0.731337 0.682017 -1.91587e-05
    outer loop
      vertex 66.8654 11.6882 -0.5
      vertex 63.5609 15.2319 7.85379
      vertex 63.666 15.1192 7.86517
    endloop
  endfacet
  facet normal 0.731419 0.681928 4.87359e-05
    outer loop
      vertex 66.8654 11.6882 -0.5
      vertex 63.666 15.1192 7.86517
      vertex 63.7707 15.0069 7.88409
    endloop
  endfacet
  facet normal 0.731301 0.682055 -4.53424e-05
    outer loop
      vertex 66.8654 11.6882 -0.5
      vertex 63.7707 15.0069 7.88409
      vertex 63.8746 14.8955 7.91053
    endloop
  endfacet
  facet normal 0.731225 0.682136 -0.000102969
    outer loop
      vertex 66.8654 11.6882 -0.5
      vertex 63.8746 14.8955 7.91053
      vertex 63.9775 14.7852 7.9444
    endloop
  endfacet
  facet normal 0.731485 0.681858 8.78625e-05
    outer loop
      vertex 66.8654 11.6882 -0.5
      vertex 63.9775 14.7852 7.9444
      vertex 64.0791 14.6762 7.98564
    endloop
  endfacet
  facet normal 0.731507 0.681834 0.000103756
    outer loop
      vertex 66.8654 11.6882 -0.5
      vertex 64.0791 14.6762 7.98564
      vertex 64.1792 14.5688 8.03414
    endloop
  endfacet
  facet normal 0.731022 0.682354 -0.000224568
    outer loop
      vertex 66.8654 11.6882 -0.5
      vertex 64.1792 14.5688 8.03414
      vertex 64.2776 14.4634 8.08978
    endloop
  endfacet
  facet normal 0.731421 0.681926 3.3911e-05
    outer loop
      vertex 66.8654 11.6882 -0.5
      vertex 64.2776 14.4634 8.08978
      vertex 64.374 14.36 8.15243
    endloop
  endfacet
  facet normal 0.731308 0.682047 -3.59982e-05
    outer loop
      vertex 66.8654 11.6882 -0.5
      vertex 64.374 14.36 8.15243
      vertex 64.4682 14.259 8.22195
    endloop
  endfacet
  facet normal 0.731536 0.681803 9.86268e-05
    outer loop
      vertex 66.8654 11.6882 -0.5
      vertex 64.4682 14.259 8.22195
      vertex 64.5599 14.1606 8.29815
    endloop
  endfacet
  facet normal 0.731218 0.682144 -8.09019e-05
    outer loop
      vertex 66.8654 11.6882 -0.5
      vertex 64.5599 14.1606 8.29815
      vertex 64.649 14.0651 8.38087
    endloop
  endfacet
  facet normal 0.731537 0.681801 9.07929e-05
    outer loop
      vertex 66.8654 11.6882 -0.5
      vertex 64.649 14.0651 8.38087
      vertex 64.7352 13.9726 8.4699
    endloop
  endfacet
  facet normal 0.731313 0.682042 -2.36119e-05
    outer loop
      vertex 66.8654 11.6882 -0.5
      vertex 64.7352 13.9726 8.4699
      vertex 64.8183 13.8835 8.56502
    endloop
  endfacet
  facet normal 0.731778 0.681542 -0.00127859
    outer loop
      vertex 66.8654 11.6882 10
      vertex 64.8183 13.8835 8.56502
      vertex 64.8982 13.7979 8.666
    endloop
  endfacet
  facet normal 0.731089 0.682281 0.000907505
    outer loop
      vertex 66.8654 11.6882 10
      vertex 64.8982 13.7979 8.666
      vertex 64.9745 13.716 8.77261
    endloop
  endfacet
  facet normal 0.731247 0.682112 0.000384953
    outer loop
      vertex 66.8654 11.6882 10
      vertex 64.9745 13.716 8.77261
      vertex 65.0472 13.638 8.88459
    endloop
  endfacet
  facet normal 0.731323 0.682031 0.000119151
    outer loop
      vertex 66.8654 11.6882 10
      vertex 65.0472 13.638 8.88459
      vertex 65.1161 13.5641 9.00166
    endloop
  endfacet
  facet normal 0.731379 0.681971 2.4341e-06
    outer loop
      vertex 66.8654 11.6882 10
      vertex 65.4782 13.1759 9.9388
      vertex 65.492 13.1611 10
    endloop
  endfacet
  facet normal 0.731384 0.681966 -0.000253645
    outer loop
      vertex 66.8654 11.6882 10
      vertex 65.4402 13.2166 9.79455
      vertex 65.4782 13.1759 9.9388
    endloop
  endfacet
  facet normal 0.731364 0.681987 4.06334e-05
    outer loop
      vertex 66.8654 11.6882 10
      vertex 65.3975 13.2624 9.6532
      vertex 65.4402 13.2166 9.79455
    endloop
  endfacet
  facet normal 0.731388 0.681962 -0.000174848
    outer loop
      vertex 66.8654 11.6882 10
      vertex 65.3501 13.3132 9.5151
      vertex 65.3975 13.2624 9.6532
    endloop
  endfacet
  facet normal 0.731331 0.682022 0.000205191
    outer loop
      vertex 66.8654 11.6882 10
      vertex 65.2981 13.369 9.38058
      vertex 65.3501 13.3132 9.5151
    endloop
  endfacet
  facet normal 0.731351 0.682001 9.8524e-05
    outer loop
      vertex 66.8654 11.6882 10
      vertex 65.2417 13.4295 9.24995
      vertex 65.2981 13.369 9.38058
    endloop
  endfacet
  facet normal 0.731367 0.681984 2.54504e-05
    outer loop
      vertex 66.8654 11.6882 10
      vertex 65.181 13.4946 9.12355
      vertex 65.2417 13.4295 9.24995
    endloop
  endfacet
  facet normal 0.731561 0.681775 -0.000778831
    outer loop
      vertex 66.8654 11.6882 10
      vertex 65.1161 13.5641 9.00166
      vertex 65.181 13.4946 9.12355
    endloop
  endfacet
  facet normal 0.731362 0.681989 0
    outer loop
      vertex 64.8183 13.8835 8.56502
      vertex 66.8654 11.6882 10
      vertex 66.8654 11.6882 -0.5
    endloop
  endfacet
  facet normal 0.731356 0.681996 -8.46318e-06
    outer loop
      vertex 63.4555 15.345 7.85
      vertex 66.8654 11.6882 -0.5
      vertex 60.0455 19.0017 -0.5
    endloop
  endfacet
  facet normal -0.731347 -0.682006 0
    outer loop
      vertex 61.3612 16.1245 8.56502
      vertex 59.3141 18.3197 10
      vertex 59.3141 18.3197 0.5
    endloop
  endfacet
  facet normal -0.731354 -0.681998 -0.00109993
    outer loop
      vertex 59.3141 18.3197 10
      vertex 60.7014 16.8321 9.9388
      vertex 60.6876 16.8468 10
    endloop
  endfacet
  facet normal -0.731326 -0.682028 0.000286433
    outer loop
      vertex 59.3141 18.3197 10
      vertex 60.7393 16.7914 9.79455
      vertex 60.7014 16.8321 9.9388
    endloop
  endfacet
  facet normal -0.731344 -0.682009 1.92575e-05
    outer loop
      vertex 59.3141 18.3197 10
      vertex 60.7821 16.7455 9.6532
      vertex 60.7393 16.7914 9.79455
    endloop
  endfacet
  facet normal -0.731363 -0.681989 -0.000156245
    outer loop
      vertex 59.3141 18.3197 10
      vertex 60.8295 16.6947 9.5151
      vertex 60.7821 16.7455 9.6532
    endloop
  endfacet
  facet normal -0.731392 -0.681957 -0.000352056
    outer loop
      vertex 59.3141 18.3197 10
      vertex 60.8815 16.639 9.38058
      vertex 60.8295 16.6947 9.5151
    endloop
  endfacet
  facet normal -0.7313 -0.682055 0.000145477
    outer loop
      vertex 59.3141 18.3197 10
      vertex 60.9379 16.5785 9.24995
      vertex 60.8815 16.639 9.38058
    endloop
  endfacet
  facet normal -0.731315 -0.68204 7.91698e-05
    outer loop
      vertex 59.3141 18.3197 10
      vertex 60.9986 16.5134 9.12355
      vertex 60.9379 16.5785 9.24995
    endloop
  endfacet
  facet normal -0.731119 -0.682249 0.000886333
    outer loop
      vertex 59.3141 18.3197 10
      vertex 61.0634 16.4438 9.00166
      vertex 60.9986 16.5134 9.12355
    endloop
  endfacet
  facet normal -0.731323 -0.682031 0.000119151
    outer loop
      vertex 59.3141 18.3197 10
      vertex 61.1323 16.3699 8.88459
      vertex 61.0634 16.4438 9.00166
    endloop
  endfacet
  facet normal -0.731536 -0.681803 -0.000627087
    outer loop
      vertex 59.3141 18.3197 10
      vertex 61.205 16.292 8.77261
      vertex 61.1323 16.3699 8.88459
    endloop
  endfacet
  facet normal -0.731445 -0.6819 -0.000326162
    outer loop
      vertex 59.3141 18.3197 10
      vertex 61.2814 16.2101 8.666
      vertex 61.205 16.292 8.77261
    endloop
  endfacet
  facet normal -0.731214 -0.682148 0.00040542
    outer loop
      vertex 59.3141 18.3197 10
      vertex 61.3612 16.1245 8.56502
      vertex 61.2814 16.2101 8.666
    endloop
  endfacet
  facet normal -0.73129 -0.682067 -3.09783e-05
    outer loop
      vertex 59.3141 18.3197 0.5
      vertex 61.4444 16.0353 8.4699
      vertex 61.3612 16.1245 8.56502
    endloop
  endfacet
  facet normal -0.731241 -0.682119 -5.87919e-05
    outer loop
      vertex 59.3141 18.3197 0.5
      vertex 61.5306 15.9429 8.38087
      vertex 61.4444 16.0353 8.4699
    endloop
  endfacet
  facet normal -0.731497 -0.681844 9.5878e-05
    outer loop
      vertex 59.3141 18.3197 0.5
      vertex 61.6197 15.8473 8.29815
      vertex 61.5306 15.9429 8.38087
    endloop
  endfacet
  facet normal -0.731252 -0.682108 -6.01875e-05
    outer loop
      vertex 59.3141 18.3197 0.5
      vertex 61.7114 15.749 8.22195
      vertex 61.6197 15.8473 8.29815
    endloop
  endfacet
  facet normal -0.731305 -0.682051 -2.48998e-05
    outer loop
      vertex 59.3141 18.3197 0.5
      vertex 61.8056 15.648 8.15243
      vertex 61.7114 15.749 8.22195
    endloop
  endfacet
  facet normal -0.731416 -0.681932 5.28127e-05
    outer loop
      vertex 59.3141 18.3197 0.5
      vertex 61.902 15.5446 8.08978
      vertex 61.8056 15.648 8.15243
    endloop
  endfacet
  facet normal -0.731295 -0.682061 -3.55186e-05
    outer loop
      vertex 59.3141 18.3197 0.5
      vertex 62.0004 15.4391 8.03414
      vertex 61.902 15.5446 8.08978
    endloop
  endfacet
  facet normal -0.731503 -0.681838 0.000123778
    outer loop
      vertex 59.3141 18.3197 0.5
      vertex 62.1005 15.3317 7.98564
      vertex 62.0004 15.4391 8.03414
    endloop
  endfacet
  facet normal -0.731481 -0.681861 0.000106549
    outer loop
      vertex 59.3141 18.3197 0.5
      vertex 62.2021 15.2227 7.9444
      vertex 62.1005 15.3317 7.98564
    endloop
  endfacet
  facet normal -0.731226 -0.682135 -0.000106524
    outer loop
      vertex 59.3141 18.3197 0.5
      vertex 62.305 15.1124 7.91053
      vertex 62.2021 15.2227 7.9444
    endloop
  endfacet
  facet normal -0.7313 -0.682056 -4.1942e-05
    outer loop
      vertex 59.3141 18.3197 0.5
      vertex 62.4089 15.001 7.88409
      vertex 62.305 15.1124 7.91053
    endloop
  endfacet
  facet normal -0.731438 -0.681907 8.25088e-05
    outer loop
      vertex 59.3141 18.3197 0.5
      vertex 62.5135 14.8888 7.86517
      vertex 62.4089 15.001 7.88409
    endloop
  endfacet
  facet normal -0.731316 -0.682039 -3.22513e-05
    outer loop
      vertex 59.3141 18.3197 0.5
      vertex 62.6187 14.776 7.85379
      vertex 62.5135 14.8888 7.86517
    endloop
  endfacet
  facet normal -0.731272 -0.682086 -7.46333e-05
    outer loop
      vertex 59.3141 18.3197 0.5
      vertex 62.7241 14.663 7.85
      vertex 62.6187 14.776 7.85379
    endloop
  endfacet
  facet normal -0.731351 -0.682001 4.63946e-06
    outer loop
      vertex 66.1341 11.0062 0.5
      vertex 62.7241 14.663 7.85
      vertex 59.3141 18.3197 0.5
    endloop
  endfacet
  facet normal -0.731568 -0.681769 -0.000211452
    outer loop
      vertex 62.7241 14.663 7.85
      vertex 66.1341 11.0062 0.5
      vertex 62.8295 14.5499 7.85379
    endloop
  endfacet
  facet normal -0.731028 -0.682348 0.000310226
    outer loop
      vertex 62.8295 14.5499 7.85379
      vertex 66.1341 11.0062 0.5
      vertex 62.9347 14.4372 7.86517
    endloop
  endfacet
  facet normal -0.73172 -0.681605 -0.000336336
    outer loop
      vertex 62.9347 14.4372 7.86517
      vertex 66.1341 11.0062 0.5
      vertex 63.0393 14.3249 7.88409
    endloop
  endfacet
  facet normal -0.7313 -0.682056 4.1942e-05
    outer loop
      vertex 63.0393 14.3249 7.88409
      vertex 66.1341 11.0062 0.5
      vertex 63.1432 14.2135 7.91053
    endloop
  endfacet
  facet normal -0.731226 -0.682135 0.000106524
    outer loop
      vertex 63.1432 14.2135 7.91053
      vertex 66.1341 11.0062 0.5
      vertex 63.2461 14.1032 7.9444
    endloop
  endfacet
  facet normal -0.731481 -0.681861 -0.000106549
    outer loop
      vertex 63.2461 14.1032 7.9444
      vertex 66.1341 11.0062 0.5
      vertex 63.3477 13.9942 7.98564
    endloop
  endfacet
  facet normal -0.731234 -0.682126 9.10681e-05
    outer loop
      vertex 63.3477 13.9942 7.98564
      vertex 66.1341 11.0062 0.5
      vertex 63.4478 13.8869 8.03414
    endloop
  endfacet
  facet normal -0.731297 -0.682059 4.30524e-05
    outer loop
      vertex 63.4478 13.8869 8.03414
      vertex 66.1341 11.0062 0.5
      vertex 63.5462 13.7814 8.08978
    endloop
  endfacet
  facet normal -0.731418 -0.68193 -4.54576e-05
    outer loop
      vertex 63.5462 13.7814 8.08978
      vertex 66.1341 11.0062 0.5
      vertex 63.6426 13.678 8.15243
    endloop
  endfacet
  facet normal -0.731307 -0.682048 3.20859e-05
    outer loop
      vertex 63.6426 13.678 8.15243
      vertex 66.1341 11.0062 0.5
      vertex 63.7368 13.577 8.22195
    endloop
  endfacet
  facet normal -0.731529 -0.68181 -0.000116312
    outer loop
      vertex 63.7368 13.577 8.22195
      vertex 66.1341 11.0062 0.5
      vertex 63.8285 13.4786 8.29815
    endloop
  endfacet
  facet normal -0.731218 -0.682144 8.16846e-05
    outer loop
      vertex 63.8285 13.4786 8.29815
      vertex 66.1341 11.0062 0.5
      vertex 63.9176 13.3831 8.38087
    endloop
  endfacet
  facet normal -0.73153 -0.68181 -0.000106915
    outer loop
      vertex 63.9176 13.3831 8.38087
      vertex 66.1341 11.0062 0.5
      vertex 64.0038 13.2906 8.4699
    endloop
  endfacet
  facet normal -0.730997 -0.68238 0.000198906
    outer loop
      vertex 64.0038 13.2906 8.4699
      vertex 66.1341 11.0062 0.5
      vertex 64.087 13.2015 8.56502
    endloop
  endfacet
  facet normal -0.731362 -0.681989 -0
    outer loop
      vertex 66.1341 11.0062 10
      vertex 64.087 13.2015 8.56502
      vertex 66.1341 11.0062 0.5
    endloop
  endfacet
  facet normal -0.731249 -0.68211 -0.000346364
    outer loop
      vertex 64.087 13.2015 8.56502
      vertex 66.1341 11.0062 10
      vertex 64.1668 13.1159 8.666
    endloop
  endfacet
  facet normal -0.731476 -0.681867 0.000374464
    outer loop
      vertex 64.1668 13.1159 8.666
      vertex 66.1341 11.0062 10
      vertex 64.2432 13.034 8.77261
    endloop
  endfacet
  facet normal -0.731247 -0.682112 -0.000384953
    outer loop
      vertex 64.2432 13.034 8.77261
      vertex 66.1341 11.0062 10
      vertex 64.3159 12.956 8.88459
    endloop
  endfacet
  facet normal -0.731323 -0.682031 -0.000119151
    outer loop
      vertex 64.3159 12.956 8.88459
      vertex 66.1341 11.0062 10
      vertex 64.3848 12.8821 9.00166
    endloop
  endfacet
  facet normal -0.731333 -0.682021 -8.27904e-05
    outer loop
      vertex 64.3848 12.8821 9.00166
      vertex 66.1341 11.0062 10
      vertex 64.4496 12.8126 9.12355
    endloop
  endfacet
  facet normal -0.73134 -0.682013 -5.32475e-05
    outer loop
      vertex 64.4496 12.8126 9.12355
      vertex 66.1341 11.0062 10
      vertex 64.5103 12.7475 9.24995
    endloop
  endfacet
  facet normal -0.731475 -0.681868 0.000576662
    outer loop
      vertex 64.5103 12.7475 9.24995
      vertex 66.1341 11.0062 10
      vertex 64.5668 12.687 9.38058
    endloop
  endfacet
  facet normal -0.731213 -0.682148 -0.000846819
    outer loop
      vertex 64.5668 12.687 9.38058
      vertex 66.1341 11.0062 10
      vertex 64.6187 12.6312 9.5151
    endloop
  endfacet
  facet normal -0.731363 -0.681989 0.000156245
    outer loop
      vertex 64.6187 12.6312 9.5151
      vertex 66.1341 11.0062 10
      vertex 64.6661 12.5804 9.6532
    endloop
  endfacet
  facet normal -0.731401 -0.681948 0.000500367
    outer loop
      vertex 64.6661 12.5804 9.6532
      vertex 66.1341 11.0062 10
      vertex 64.7089 12.5346 9.79455
    endloop
  endfacet
  facet normal -0.731349 -0.682004 -0.000273355
    outer loop
      vertex 64.7089 12.5346 9.79455
      vertex 66.1341 11.0062 10
      vertex 64.7468 12.4939 9.9388
    endloop
  endfacet
  facet normal -0.731354 -0.681998 -1.44419e-05
    outer loop
      vertex 64.7468 12.4939 9.9388
      vertex 66.1341 11.0062 10
      vertex 64.7606 12.4791 10
    endloop
  endfacet
  facet normal 0.64773 -0.694647 0.312908
    outer loop
      vertex 60.7014 16.8321 9.9388
      vertex 61.419 17.5288 10
      vertex 60.6876 16.8468 10
    endloop
  endfacet
  facet normal 0.647991 -0.694833 0.311953
    outer loop
      vertex 61.419 17.5288 10
      vertex 60.7014 16.8321 9.9388
      vertex 61.4327 17.5141 9.9388
    endloop
  endfacet
  facet normal -0.470376 0.504379 0.724119
    outer loop
      vertex 64.8982 13.7979 8.666
      vertex 64.2432 13.034 8.77261
      vertex 64.9745 13.716 8.77261
    endloop
  endfacet
  facet normal -0.470192 0.50425 0.724329
    outer loop
      vertex 64.2432 13.034 8.77261
      vertex 64.8982 13.7979 8.666
      vertex 64.1668 13.1159 8.666
    endloop
  endfacet
  facet normal 0.083447 -0.0894914 0.992486
    outer loop
      vertex 63.1402 15.683 7.88409
      vertex 62.5135 14.8888 7.86517
      vertex 63.2449 15.5708 7.86517
    endloop
  endfacet
  facet normal 0.0834896 -0.0895249 0.992479
    outer loop
      vertex 62.5135 14.8888 7.86517
      vertex 63.1402 15.683 7.88409
      vertex 62.4089 15.001 7.88409
    endloop
  endfacet
  facet normal -0.445379 0.47764 0.757296
    outer loop
      vertex 64.8183 13.8835 8.56502
      vertex 64.1668 13.1159 8.666
      vertex 64.8982 13.7979 8.666
    endloop
  endfacet
  facet normal -0.445561 0.477769 0.757108
    outer loop
      vertex 64.1668 13.1159 8.666
      vertex 64.8183 13.8835 8.56502
      vertex 64.087 13.2015 8.56502
    endloop
  endfacet
  facet normal -0.623578 0.668655 0.405031
    outer loop
      vertex 65.3975 13.2624 9.6532
      vertex 64.7089 12.5346 9.79455
      vertex 65.4402 13.2166 9.79455
    endloop
  endfacet
  facet normal -0.623421 0.668578 0.4054
    outer loop
      vertex 64.7089 12.5346 9.79455
      vertex 65.3975 13.2624 9.6532
      vertex 64.6661 12.5804 9.6532
    endloop
  endfacet
  facet normal 0.18183 -0.195001 0.963801
    outer loop
      vertex 62.8318 16.0137 7.98564
      vertex 62.2021 15.2227 7.9444
      vertex 62.9335 15.9047 7.9444
    endloop
  endfacet
  facet normal 0.18192 -0.195071 0.96377
    outer loop
      vertex 62.2021 15.2227 7.9444
      vertex 62.8318 16.0137 7.98564
      vertex 62.1005 15.3317 7.98564
    endloop
  endfacet
  facet normal 0.392815 -0.42121 0.817483
    outer loop
      vertex 62.1757 16.7173 8.4699
      vertex 61.5306 15.9429 8.38087
      vertex 62.2619 16.6249 8.38087
    endloop
  endfacet
  facet normal 0.392815 -0.42121 0.817483
    outer loop
      vertex 61.5306 15.9429 8.38087
      vertex 62.1757 16.7173 8.4699
      vertex 61.4444 16.0353 8.4699
    endloop
  endfacet
  facet normal -0.493927 0.529631 0.689585
    outer loop
      vertex 64.9745 13.716 8.77261
      vertex 64.3159 12.956 8.88459
      vertex 65.0472 13.638 8.88459
    endloop
  endfacet
  facet normal -0.493927 0.529631 0.689585
    outer loop
      vertex 64.3159 12.956 8.88459
      vertex 64.9745 13.716 8.77261
      vertex 64.2432 13.034 8.77261
    endloop
  endfacet
  facet normal -0.647499 0.6944 0.313932
    outer loop
      vertex 65.4782 13.1759 9.9388
      vertex 64.7606 12.4791 10
      vertex 65.492 13.1611 10
    endloop
  endfacet
  facet normal -0.647499 0.6944 0.313932
    outer loop
      vertex 64.7606 12.4791 10
      vertex 65.4782 13.1759 9.9388
      vertex 64.7468 12.4939 9.9388
    endloop
  endfacet
  facet normal -0.516324 0.553648 0.653364
    outer loop
      vertex 65.0472 13.638 8.88459
      vertex 64.3848 12.8821 9.00166
      vertex 65.1161 13.5641 9.00166
    endloop
  endfacet
  facet normal -0.516324 0.553648 0.653364
    outer loop
      vertex 64.3848 12.8821 9.00166
      vertex 65.0472 13.638 8.88459
      vertex 64.3159 12.956 8.88459
    endloop
  endfacet
  facet normal 0.276455 -0.296439 0.914164
    outer loop
      vertex 62.5369 16.3299 8.15243
      vertex 61.902 15.5446 8.08978
      vertex 62.6333 16.2266 8.08978
    endloop
  endfacet
  facet normal 0.276314 -0.296331 0.914242
    outer loop
      vertex 61.902 15.5446 8.08978
      vertex 62.5369 16.3299 8.15243
      vertex 61.8056 15.648 8.15243
    endloop
  endfacet
  facet normal -0.57623 0.617884 0.534956
    outer loop
      vertex 65.2417 13.4295 9.24995
      vertex 64.5668 12.687 9.38058
      vertex 65.2981 13.369 9.38058
    endloop
  endfacet
  facet normal -0.576052 0.617778 0.535271
    outer loop
      vertex 64.5668 12.687 9.38058
      vertex 65.2417 13.4295 9.24995
      vertex 64.5103 12.7475 9.24995
    endloop
  endfacet
  facet normal -0.636222 0.682306 0.360113
    outer loop
      vertex 65.4402 13.2166 9.79455
      vertex 64.7468 12.4939 9.9388
      vertex 65.4782 13.1759 9.9388
    endloop
  endfacet
  facet normal -0.636369 0.682371 0.359729
    outer loop
      vertex 64.7468 12.4939 9.9388
      vertex 65.4402 13.2166 9.79455
      vertex 64.7089 12.5346 9.79455
    endloop
  endfacet
  facet normal -0.0834078 0.0894494 0.992493
    outer loop
      vertex 63.666 15.1192 7.86517
      vertex 63.0393 14.3249 7.88409
      vertex 63.7707 15.0069 7.88409
    endloop
  endfacet
  facet normal -0.0834504 0.0894828 0.992486
    outer loop
      vertex 63.0393 14.3249 7.88409
      vertex 63.666 15.1192 7.86517
      vertex 62.9347 14.4372 7.86517
    endloop
  endfacet
  facet normal -0.276315 0.29633 0.914242
    outer loop
      vertex 64.2776 14.4634 8.08978
      vertex 63.6426 13.678 8.15243
      vertex 64.374 14.36 8.15243
    endloop
  endfacet
  facet normal -0.276315 0.29633 0.914242
    outer loop
      vertex 63.6426 13.678 8.15243
      vertex 64.2776 14.4634 8.08978
      vertex 63.5462 13.7814 8.08978
    endloop
  endfacet
  facet normal -0.245511 0.263294 0.932953
    outer loop
      vertex 64.1792 14.5688 8.03414
      vertex 63.5462 13.7814 8.08978
      vertex 64.2776 14.4634 8.08978
    endloop
  endfacet
  facet normal -0.245383 0.263196 0.933014
    outer loop
      vertex 63.5462 13.7814 8.08978
      vertex 64.1792 14.5688 8.03414
      vertex 63.4478 13.8869 8.03414
    endloop
  endfacet
  facet normal 0.306617 -0.328829 0.893229
    outer loop
      vertex 62.4428 16.431 8.22195
      vertex 61.8056 15.648 8.15243
      vertex 62.5369 16.3299 8.15243
    endloop
  endfacet
  facet normal 0.306627 -0.328837 0.893222
    outer loop
      vertex 61.8056 15.648 8.15243
      vertex 62.4428 16.431 8.22195
      vertex 61.7114 15.749 8.22195
    endloop
  endfacet
  facet normal 0.0502054 -0.0538346 0.997287
    outer loop
      vertex 63.2449 15.5708 7.86517
      vertex 62.6187 14.776 7.85379
      vertex 63.35 15.458 7.85379
    endloop
  endfacet
  facet normal 0.0501796 -0.0538143 0.997289
    outer loop
      vertex 62.6187 14.776 7.85379
      vertex 63.2449 15.5708 7.86517
      vertex 62.5135 14.8888 7.86517
    endloop
  endfacet
  facet normal 0.24542 -0.263161 0.933014
    outer loop
      vertex 62.6333 16.2266 8.08978
      vertex 62.0004 15.4391 8.03414
      vertex 62.7317 16.1211 8.03414
    endloop
  endfacet
  facet normal 0.24542 -0.263161 0.933014
    outer loop
      vertex 62.0004 15.4391 8.03414
      vertex 62.6333 16.2266 8.08978
      vertex 61.902 15.5446 8.08978
    endloop
  endfacet
  facet normal 0.494052 -0.529838 0.689337
    outer loop
      vertex 61.8637 17.0519 8.88459
      vertex 61.205 16.292 8.77261
      vertex 61.9364 16.974 8.77261
    endloop
  endfacet
  facet normal 0.494052 -0.529838 0.689337
    outer loop
      vertex 61.205 16.292 8.77261
      vertex 61.8637 17.0519 8.88459
      vertex 61.1323 16.3699 8.88459
    endloop
  endfacet
  facet normal 0.149482 -0.160288 0.975686
    outer loop
      vertex 62.9335 15.9047 7.9444
      vertex 62.305 15.1124 7.91053
      vertex 63.0363 15.7944 7.91053
    endloop
  endfacet
  facet normal 0.149407 -0.160229 0.975707
    outer loop
      vertex 62.305 15.1124 7.91053
      vertex 62.9335 15.9047 7.9444
      vertex 62.2021 15.2227 7.9444
    endloop
  endfacet
  facet normal 0.55764 -0.59795 0.575754
    outer loop
      vertex 60.9986 16.5134 9.12355
      vertex 61.6692 17.2605 9.24995
      vertex 60.9379 16.5785 9.24995
    endloop
  endfacet
  facet normal 0.55764 -0.59795 0.575754
    outer loop
      vertex 61.6692 17.2605 9.24995
      vertex 60.9986 16.5134 9.12355
      vertex 61.7299 17.1954 9.12355
    endloop
  endfacet
  facet normal -0.306627 0.328837 0.893222
    outer loop
      vertex 64.374 14.36 8.15243
      vertex 63.7368 13.577 8.22195
      vertex 64.4682 14.259 8.22195
    endloop
  endfacet
  facet normal -0.306627 0.328837 0.893222
    outer loop
      vertex 63.7368 13.577 8.22195
      vertex 64.374 14.36 8.15243
      vertex 63.6426 13.678 8.15243
    endloop
  endfacet
  facet normal 0.57623 -0.617884 0.534956
    outer loop
      vertex 60.9379 16.5785 9.24995
      vertex 61.6128 17.321 9.38058
      vertex 60.8815 16.639 9.38058
    endloop
  endfacet
  facet normal 0.57623 -0.617884 0.534956
    outer loop
      vertex 61.6128 17.321 9.38058
      vertex 60.9379 16.5785 9.24995
      vertex 61.6692 17.2605 9.24995
    endloop
  endfacet
  facet normal 0.609263 -0.653305 0.449435
    outer loop
      vertex 60.8295 16.6947 9.5151
      vertex 61.5134 17.4275 9.6532
      vertex 60.7821 16.7455 9.6532
    endloop
  endfacet
  facet normal 0.609263 -0.653305 0.449435
    outer loop
      vertex 61.5134 17.4275 9.6532
      vertex 60.8295 16.6947 9.5151
      vertex 61.5608 17.3767 9.5151
    endloop
  endfacet
  facet normal 0.623302 -0.66845 0.405795
    outer loop
      vertex 60.7821 16.7455 9.6532
      vertex 61.4707 17.4734 9.79455
      vertex 60.7393 16.7914 9.79455
    endloop
  endfacet
  facet normal 0.623459 -0.668527 0.405427
    outer loop
      vertex 61.4707 17.4734 9.79455
      vertex 60.7821 16.7455 9.6532
      vertex 61.5134 17.4275 9.6532
    endloop
  endfacet
  facet normal 0.470192 -0.50425 0.724329
    outer loop
      vertex 61.9364 16.974 8.77261
      vertex 61.2814 16.2101 8.666
      vertex 62.0128 16.8921 8.666
    endloop
  endfacet
  facet normal 0.470192 -0.50425 0.724329
    outer loop
      vertex 61.2814 16.2101 8.666
      vertex 61.9364 16.974 8.77261
      vertex 61.205 16.292 8.77261
    endloop
  endfacet
  facet normal 0.336168 -0.360518 0.870068
    outer loop
      vertex 62.351 16.5293 8.29815
      vertex 61.7114 15.749 8.22195
      vertex 62.4428 16.431 8.22195
    endloop
  endfacet
  facet normal 0.336322 -0.360634 0.86996
    outer loop
      vertex 61.7114 15.749 8.22195
      vertex 62.351 16.5293 8.29815
      vertex 61.6197 15.8473 8.29815
    endloop
  endfacet
  facet normal 0.59343 -0.636328 0.492877
    outer loop
      vertex 60.8815 16.639 9.38058
      vertex 61.5608 17.3767 9.5151
      vertex 60.8295 16.6947 9.5151
    endloop
  endfacet
  facet normal 0.59343 -0.636328 0.492877
    outer loop
      vertex 61.5608 17.3767 9.5151
      vertex 60.8815 16.639 9.38058
      vertex 61.6128 17.321 9.38058
    endloop
  endfacet
  facet normal -0.336159 0.360508 0.870075
    outer loop
      vertex 64.4682 14.259 8.22195
      vertex 63.8285 13.4786 8.29815
      vertex 64.5599 14.1606 8.29815
    endloop
  endfacet
  facet normal -0.336159 0.360508 0.870075
    outer loop
      vertex 63.8285 13.4786 8.29815
      vertex 64.4682 14.259 8.22195
      vertex 63.7368 13.577 8.22195
    endloop
  endfacet
  facet normal 0.636369 -0.682371 0.359729
    outer loop
      vertex 60.7393 16.7914 9.79455
      vertex 61.4327 17.5141 9.9388
      vertex 60.7014 16.8321 9.9388
    endloop
  endfacet
  facet normal 0.636222 -0.682306 0.360113
    outer loop
      vertex 61.4327 17.5141 9.9388
      vertex 60.7393 16.7914 9.79455
      vertex 61.4707 17.4734 9.79455
    endloop
  endfacet
  facet normal -0.149407 0.160229 0.975707
    outer loop
      vertex 63.8746 14.8955 7.91053
      vertex 63.2461 14.1032 7.9444
      vertex 63.9775 14.7852 7.9444
    endloop
  endfacet
  facet normal -0.149407 0.160229 0.975707
    outer loop
      vertex 63.2461 14.1032 7.9444
      vertex 63.8746 14.8955 7.91053
      vertex 63.1432 14.2135 7.91053
    endloop
  endfacet
  facet normal -0.392634 0.421074 0.81764
    outer loop
      vertex 64.649 14.0651 8.38087
      vertex 64.0038 13.2906 8.4699
      vertex 64.7352 13.9726 8.4699
    endloop
  endfacet
  facet normal -0.392634 0.421074 0.81764
    outer loop
      vertex 64.0038 13.2906 8.4699
      vertex 64.649 14.0651 8.38087
      vertex 63.9176 13.3831 8.38087
    endloop
  endfacet
  facet normal 0.419549 -0.449877 0.78841
    outer loop
      vertex 62.0926 16.8065 8.56502
      vertex 61.4444 16.0353 8.4699
      vertex 62.1757 16.7173 8.4699
    endloop
  endfacet
  facet normal 0.419372 -0.449749 0.788576
    outer loop
      vertex 61.4444 16.0353 8.4699
      vertex 62.0926 16.8065 8.56502
      vertex 61.3612 16.1245 8.56502
    endloop
  endfacet
  facet normal -0.609218 0.653346 0.449435
    outer loop
      vertex 65.3501 13.3132 9.5151
      vertex 64.6661 12.5804 9.6532
      vertex 65.3975 13.2624 9.6532
    endloop
  endfacet
  facet normal -0.609218 0.653346 0.449435
    outer loop
      vertex 64.6661 12.5804 9.6532
      vertex 65.3501 13.3132 9.5151
      vertex 64.6187 12.6312 9.5151
    endloop
  endfacet
  facet normal -0.0167137 0.0179243 0.9997
    outer loop
      vertex 63.4555 15.345 7.85
      vertex 62.8295 14.5499 7.85379
      vertex 63.5609 15.2319 7.85379
    endloop
  endfacet
  facet normal -0.0167137 0.0179243 0.9997
    outer loop
      vertex 62.8295 14.5499 7.85379
      vertex 63.4555 15.345 7.85
      vertex 62.7241 14.663 7.85
    endloop
  endfacet
  facet normal -0.593248 0.63622 0.493235
    outer loop
      vertex 65.2981 13.369 9.38058
      vertex 64.6187 12.6312 9.5151
      vertex 65.3501 13.3132 9.5151
    endloop
  endfacet
  facet normal -0.593421 0.636318 0.492901
    outer loop
      vertex 64.6187 12.6312 9.5151
      vertex 65.2981 13.369 9.38058
      vertex 64.5668 12.687 9.38058
    endloop
  endfacet
  facet normal -0.116625 0.125073 0.985269
    outer loop
      vertex 63.7707 15.0069 7.88409
      vertex 63.1432 14.2135 7.91053
      vertex 63.8746 14.8955 7.91053
    endloop
  endfacet
  facet normal -0.116625 0.125073 0.985269
    outer loop
      vertex 63.1432 14.2135 7.91053
      vertex 63.7707 15.0069 7.88409
      vertex 63.0393 14.3249 7.88409
    endloop
  endfacet
  facet normal 0.516286 -0.553683 0.653364
    outer loop
      vertex 61.7948 17.1258 9.00166
      vertex 61.1323 16.3699 8.88459
      vertex 61.8637 17.0519 8.88459
    endloop
  endfacet
  facet normal 0.516286 -0.553683 0.653364
    outer loop
      vertex 61.1323 16.3699 8.88459
      vertex 61.7948 17.1258 9.00166
      vertex 61.0634 16.4438 9.00166
    endloop
  endfacet
  facet normal 0.116634 -0.125065 0.985269
    outer loop
      vertex 63.0363 15.7944 7.91053
      vertex 62.4089 15.001 7.88409
      vertex 63.1402 15.683 7.88409
    endloop
  endfacet
  facet normal 0.116634 -0.125065 0.985269
    outer loop
      vertex 62.4089 15.001 7.88409
      vertex 63.0363 15.7944 7.91053
      vertex 62.305 15.1124 7.91053
    endloop
  endfacet
  facet normal 0.364774 -0.391143 0.844954
    outer loop
      vertex 62.2619 16.6249 8.38087
      vertex 61.6197 15.8473 8.29815
      vertex 62.351 16.5293 8.29815
    endloop
  endfacet
  facet normal 0.364774 -0.391143 0.844954
    outer loop
      vertex 61.6197 15.8473 8.29815
      vertex 62.2619 16.6249 8.38087
      vertex 61.5306 15.9429 8.38087
    endloop
  endfacet
  facet normal 0.445528 -0.477799 0.757108
    outer loop
      vertex 62.0128 16.8921 8.666
      vertex 61.3612 16.1245 8.56502
      vertex 62.0926 16.8065 8.56502
    endloop
  endfacet
  facet normal 0.445528 -0.477799 0.757108
    outer loop
      vertex 61.3612 16.1245 8.56502
      vertex 62.0128 16.8921 8.666
      vertex 61.2814 16.2101 8.666
    endloop
  endfacet
  facet normal -0.537704 0.576652 0.615098
    outer loop
      vertex 65.1161 13.5641 9.00166
      vertex 64.4496 12.8126 9.12355
      vertex 65.181 13.4946 9.12355
    endloop
  endfacet
  facet normal -0.53789 0.576772 0.614824
    outer loop
      vertex 64.4496 12.8126 9.12355
      vertex 65.1161 13.5641 9.00166
      vertex 64.3848 12.8821 9.00166
    endloop
  endfacet
  facet normal -0.557599 0.597988 0.575754
    outer loop
      vertex 65.181 13.4946 9.12355
      vertex 64.5103 12.7475 9.24995
      vertex 65.2417 13.4295 9.24995
    endloop
  endfacet
  facet normal -0.557599 0.597988 0.575754
    outer loop
      vertex 64.5103 12.7475 9.24995
      vertex 65.181 13.4946 9.12355
      vertex 64.4496 12.8126 9.12355
    endloop
  endfacet
  facet normal 0.0167142 -0.0179249 0.9997
    outer loop
      vertex 63.35 15.458 7.85379
      vertex 62.7241 14.663 7.85
      vertex 63.4555 15.345 7.85
    endloop
  endfacet
  facet normal 0.0167228 -0.0179317 0.999699
    outer loop
      vertex 62.7241 14.663 7.85
      vertex 63.35 15.458 7.85379
      vertex 62.6187 14.776 7.85379
    endloop
  endfacet
  facet normal -0.0502291 0.05386 0.997284
    outer loop
      vertex 63.5609 15.2319 7.85379
      vertex 62.9347 14.4372 7.86517
      vertex 63.666 15.1192 7.86517
    endloop
  endfacet
  facet normal -0.0502033 0.0538397 0.997287
    outer loop
      vertex 62.9347 14.4372 7.86517
      vertex 63.5609 15.2319 7.85379
      vertex 62.8295 14.5499 7.85379
    endloop
  endfacet
  facet normal -0.213902 0.229429 0.949531
    outer loop
      vertex 64.0791 14.6762 7.98564
      vertex 63.4478 13.8869 8.03414
      vertex 64.1792 14.5688 8.03414
    endloop
  endfacet
  facet normal -0.214015 0.229516 0.949484
    outer loop
      vertex 63.4478 13.8869 8.03414
      vertex 64.0791 14.6762 7.98564
      vertex 63.3477 13.9942 7.98564
    endloop
  endfacet
  facet normal 0.213934 -0.229399 0.949531
    outer loop
      vertex 62.7317 16.1211 8.03414
      vertex 62.1005 15.3317 7.98564
      vertex 62.8318 16.0137 7.98564
    endloop
  endfacet
  facet normal 0.213934 -0.229399 0.949531
    outer loop
      vertex 62.1005 15.3317 7.98564
      vertex 62.7317 16.1211 8.03414
      vertex 62.0004 15.4391 8.03414
    endloop
  endfacet
  facet normal 0.537548 -0.576485 0.615392
    outer loop
      vertex 61.7299 17.1954 9.12355
      vertex 61.0634 16.4438 9.00166
      vertex 61.7948 17.1258 9.00166
    endloop
  endfacet
  facet normal 0.537733 -0.576604 0.615118
    outer loop
      vertex 61.0634 16.4438 9.00166
      vertex 61.7299 17.1954 9.12355
      vertex 60.9986 16.5134 9.12355
    endloop
  endfacet
  facet normal -0.364893 0.391324 0.844819
    outer loop
      vertex 64.5599 14.1606 8.29815
      vertex 63.9176 13.3831 8.38087
      vertex 64.649 14.0651 8.38087
    endloop
  endfacet
  facet normal -0.364893 0.391324 0.844819
    outer loop
      vertex 63.9176 13.3831 8.38087
      vertex 64.5599 14.1606 8.29815
      vertex 63.8285 13.4786 8.29815
    endloop
  endfacet
  facet normal -0.419705 0.450045 0.78823
    outer loop
      vertex 64.7352 13.9726 8.4699
      vertex 64.087 13.2015 8.56502
      vertex 64.8183 13.8835 8.56502
    endloop
  endfacet
  facet normal -0.419529 0.449917 0.788397
    outer loop
      vertex 64.087 13.2015 8.56502
      vertex 64.7352 13.9726 8.4699
      vertex 64.0038 13.2906 8.4699
    endloop
  endfacet
  facet normal -0.181907 0.195083 0.96377
    outer loop
      vertex 63.9775 14.7852 7.9444
      vertex 63.3477 13.9942 7.98564
      vertex 64.0791 14.6762 7.98564
    endloop
  endfacet
  facet normal -0.181907 0.195083 0.96377
    outer loop
      vertex 63.3477 13.9942 7.98564
      vertex 63.9775 14.7852 7.9444
      vertex 63.2461 14.1032 7.9444
    endloop
  endfacet
  facet normal 0 0 1
    outer loop
      vertex 60.0455 19.0017 10
      vertex 60.6876 16.8468 10
      vertex 61.419 17.5288 10
    endloop
  endfacet
  facet normal 0 0 1
    outer loop
      vertex 60.6876 16.8468 10
      vertex 60.0455 19.0017 10
      vertex 59.3141 18.3197 10
    endloop
  endfacet
  facet normal 0 0 1
    outer loop
      vertex 65.492 13.1611 10
      vertex 66.1341 11.0062 10
      vertex 66.8654 11.6882 10
    endloop
  endfacet
  facet normal 0 0 1
    outer loop
      vertex 66.1341 11.0062 10
      vertex 65.492 13.1611 10
      vertex 64.7606 12.4791 10
    endloop
  endfacet
  facet normal -1 0 0
    outer loop
      vertex 30 3.175 -0.5
      vertex 30 6 0.5
      vertex 30 6 -0.5
    endloop
  endfacet
  facet normal -1 -0 0
    outer loop
      vertex 30 6 0.5
      vertex 30 3.175 -0.5
      vertex 30 3.175 0.5
    endloop
  endfacet
  facet normal -1 0 0
    outer loop
      vertex 30 -6 -0.5
      vertex 30 -3.175 0.5
      vertex 30 -3.175 -0.5
    endloop
  endfacet
  facet normal -1 -0 0
    outer loop
      vertex 30 -3.175 0.5
      vertex 30 -6 -0.5
      vertex 30 -6 0.5
    endloop
  endfacet
endsolid OpenSCAD_Model
